<?xml version="1.0" standalone="no"?>
<!DOCTYPE svg PUBLIC "-//W3C//DTD SVG 20010904//EN"
 "http://www.w3.org/TR/2001/REC-SVG-20010904/DTD/svg10.dtd">
<svg version="1.0" xmlns="http://www.w3.org/2000/svg"
 width="1359.000000pt" height="1359.000000pt" viewBox="0 0 1359.000000 1359.000000"
 preserveAspectRatio="xMidYMid meet">
<metadata>
Created by potrace 1.14, written by Peter Selinger 2001-2017
</metadata>
<g transform="translate(0.000000,1359.000000) scale(0.100000,-0.100000)"
fill="#000000" stroke="none">
<path d="M9996 12762 c-3 -5 1 -9 9 -9 8 0 15 4 15 9 0 4 -4 8 -9 8 -6 0 -12
-4 -15 -8z"/>
<path d="M10575 12410 c3 -4 -2 -11 -11 -14 -9 -4 -14 -13 -10 -21 3 -8 0 -14
-7 -12 -7 1 -11 -6 -9 -17 2 -12 -1 -16 -9 -10 -8 5 -11 2 -6 -8 3 -9 0 -21
-6 -27 -6 -6 -7 -11 -1 -11 5 0 4 -4 -3 -8 -7 -4 -13 -24 -15 -45 -1 -20 -8
-39 -15 -42 -10 -3 -11 -10 -4 -23 6 -11 6 -24 1 -32 -6 -9 -5 -17 3 -22 8 -5
6 -8 -6 -8 -10 0 -15 -5 -12 -10 4 -6 1 -17 -5 -25 -9 -10 -9 -15 -1 -15 7 0
8 -8 0 -27 -7 -19 -6 -28 2 -33 8 -6 8 -9 -1 -15 -6 -4 -9 -13 -6 -21 3 -8 1
-14 -4 -14 -5 0 -7 -6 -4 -14 3 -8 1 -17 -5 -21 -7 -4 -8 -12 -1 -24 5 -10 6
-21 3 -25 -12 -11 -12 -40 -1 -53 7 -9 6 -14 -4 -18 -8 -3 -14 -16 -13 -28 1
-12 -2 -31 -8 -42 -7 -13 -6 -20 2 -23 6 -2 8 -9 4 -15 -11 -17 -10 -87 1 -87
6 0 5 -5 -1 -11 -6 -6 -9 -18 -6 -27 4 -10 2 -13 -5 -8 -8 4 -10 2 -6 -7 3 -8
1 -18 -5 -22 -8 -4 -8 -12 -1 -25 7 -13 7 -21 0 -25 -8 -5 -8 -11 -1 -19 6 -7
8 -16 4 -20 -11 -11 -12 -36 -1 -36 6 0 4 -7 -3 -17 -11 -13 -11 -17 -1 -21
10 -3 10 -7 1 -19 -10 -12 -10 -16 2 -24 10 -6 11 -9 1 -9 -7 0 -10 -4 -7 -10
3 -5 2 -10 -3 -10 -5 0 -8 -13 -7 -30 1 -16 -1 -30 -4 -30 -4 0 -5 -17 -3 -37
1 -21 3 -42 4 -48 0 -5 -3 -18 -7 -27 -4 -12 -3 -18 5 -18 8 0 9 -4 3 -12 -11
-15 -11 -58 0 -75 4 -6 2 -15 -4 -18 -5 -4 -8 -13 -5 -21 3 -8 0 -14 -6 -14
-6 0 -9 -3 -5 -6 3 -3 2 -17 -4 -31 -6 -17 -6 -22 2 -17 8 4 8 0 0 -15 -9 -16
-9 -21 1 -21 8 0 9 -3 3 -8 -15 -11 -17 -30 -4 -54 7 -13 7 -18 1 -14 -6 4
-10 -2 -9 -14 1 -11 5 -20 9 -20 4 0 8 -5 8 -11 0 -5 -4 -8 -9 -5 -12 8 -8
-27 4 -36 6 -5 6 -8 -2 -8 -12 0 -11 -39 2 -60 6 -9 4 -11 -6 -5 -12 8 -12 6
0 -8 8 -11 9 -17 3 -17 -7 0 -9 -7 -5 -17 5 -12 3 -14 -8 -8 -8 5 -5 -2 6 -15
11 -13 14 -20 8 -16 -8 4 -13 1 -14 -8 -2 -18 -5 -35 -9 -38 -7 -9 -5 -48 3
-48 5 0 4 -7 -3 -15 -10 -12 -10 -19 -2 -27 7 -7 8 -17 2 -28 -5 -9 -5 -22 0
-30 5 -8 4 -22 -2 -33 -7 -14 -7 -22 2 -27 8 -5 9 -10 2 -14 -13 -8 -12 -46 1
-46 4 0 5 -5 2 -10 -4 -6 -12 -7 -18 -3 -7 4 -6 0 2 -10 9 -12 10 -17 2 -17
-7 0 -10 -4 -7 -8 2 -4 1 -14 -4 -22 -4 -7 -4 -23 0 -36 5 -12 6 -25 2 -28 -9
-10 -9 -69 1 -83 4 -6 3 -14 -3 -18 -6 -3 -7 -11 -4 -17 4 -6 0 -14 -7 -19
-11 -7 -10 -9 4 -9 15 0 16 -3 7 -20 -8 -14 -8 -20 0 -20 7 0 8 -6 1 -18 -5
-10 -6 -24 -1 -32 5 -8 5 -21 0 -29 -4 -9 -8 -19 -9 -23 -1 -5 -2 -11 -2 -15
-1 -5 0 -16 1 -27 1 -10 -2 -16 -8 -13 -5 4 -9 0 -9 -8 0 -8 5 -15 11 -15 7 0
7 -3 1 -8 -14 -10 -17 -32 -5 -32 7 0 7 -7 -1 -21 -8 -16 -8 -20 1 -14 9 6 9
2 0 -15 -8 -14 -8 -25 -2 -29 5 -3 6 -15 2 -26 -4 -11 -4 -34 0 -52 5 -18 5
-31 1 -28 -4 2 -8 -9 -8 -25 0 -17 4 -30 9 -30 5 0 5 -8 0 -17 -5 -10 -7 -24
-5 -30 3 -7 1 -13 -4 -13 -5 0 -9 -8 -10 -17 0 -10 -3 -35 -5 -55 -3 -21 -1
-38 4 -38 5 0 5 -8 -1 -18 -6 -11 -6 -24 0 -35 6 -9 6 -17 2 -17 -4 0 -7 -28
-6 -62 1 -37 -1 -57 -6 -50 -5 9 -9 -6 -10 -38 0 -28 -3 -55 -6 -60 -3 -4 1
-11 7 -13 7 -3 8 -6 2 -6 -6 -1 -9 -18 -7 -42 2 -24 -2 -49 -9 -57 -10 -13
-10 -14 0 -8 7 4 12 1 12 -9 0 -9 -4 -13 -10 -10 -6 3 -7 -1 -4 -9 4 -9 1 -16
-6 -16 -10 0 -10 -3 0 -15 10 -12 10 -15 0 -15 -10 0 -10 -3 0 -15 10 -12 10
-15 0 -15 -7 0 -10 -7 -6 -16 3 -9 2 -12 -4 -9 -7 4 -9 -3 -6 -19 3 -14 0 -28
-5 -32 -5 -3 -7 -10 -3 -15 3 -5 0 -17 -8 -26 -9 -12 -9 -15 0 -9 6 4 12 2 12
-3 0 -6 -5 -11 -11 -11 -7 0 -9 -11 -6 -26 3 -16 0 -28 -9 -31 -8 -3 -14 -9
-14 -15 0 -5 6 -6 13 -2 6 4 5 -1 -4 -12 -9 -10 -15 -29 -14 -41 1 -14 -3 -19
-12 -16 -9 4 -11 0 -7 -11 4 -10 0 -18 -10 -22 -13 -5 -13 -10 -4 -27 6 -12 7
-19 3 -14 -10 8 -45 -21 -45 -37 0 -6 5 -4 10 4 7 11 10 12 10 2 0 -8 -9 -16
-20 -19 -17 -5 -25 -16 -17 -26 1 -2 -6 -11 -16 -21 -9 -10 -15 -22 -11 -27 3
-5 2 -8 -3 -7 -4 2 -9 -1 -10 -6 0 -5 -8 -13 -17 -18 -9 -5 -14 -13 -11 -18 3
-5 -3 -11 -14 -15 -11 -3 -22 -13 -25 -22 -5 -12 -3 -13 7 -7 7 5 3 0 -10 -11
-13 -12 -23 -26 -23 -33 0 -7 -4 -11 -8 -9 -4 1 -19 -9 -33 -23 -13 -14 -35
-34 -49 -45 l-25 -20 15 20 c12 17 10 16 -11 -3 -14 -12 -29 -19 -33 -15 -4 4
-4 -1 0 -12 6 -14 4 -17 -8 -12 -9 3 -24 -1 -35 -8 -10 -7 -28 -15 -38 -17
-11 -1 -26 -10 -33 -18 -8 -8 -11 -9 -7 -2 3 6 1 12 -4 12 -6 0 -11 -7 -11
-16 0 -13 -3 -14 -14 -5 -9 7 -17 8 -20 2 -3 -5 -15 -7 -26 -4 -12 3 -20 0
-20 -6 0 -7 -4 -10 -9 -6 -5 3 -12 1 -15 -4 -4 -6 -18 -6 -35 -1 -19 5 -33 4
-41 -3 -10 -9 -11 -9 -5 3 7 12 6 13 -7 3 -8 -7 -18 -10 -21 -6 -10 9 -111 8
-127 -2 -9 -6 -11 -4 -5 6 7 12 6 12 -7 1 -9 -7 -19 -9 -22 -4 -6 10 -60 7
-77 -3 -5 -4 -9 -2 -9 3 0 9 -61 7 -87 -3 -7 -2 -13 0 -13 4 0 5 -11 8 -25 7
-14 0 -25 -5 -25 -9 0 -4 -9 -3 -20 3 -15 8 -20 8 -20 -2 0 -10 -2 -10 -9 1
-6 9 -10 10 -16 2 -5 -9 -11 -9 -23 1 -11 10 -16 10 -19 1 -2 -7 -10 -9 -18
-7 -23 9 -79 10 -102 2 -13 -4 -23 -4 -23 0 0 4 -22 7 -50 7 -27 0 -50 -3 -50
-7 0 -4 -6 -5 -13 -2 -27 10 -97 9 -97 -1 0 -5 -4 -4 -9 4 -7 11 -9 11 -14 0
-4 -11 -6 -10 -6 2 -1 10 -9 15 -23 14 -13 -1 -29 2 -35 8 -7 5 -13 6 -13 1 0
-5 -11 -9 -25 -9 -14 0 -25 3 -25 7 0 8 -21 5 -37 -5 -7 -5 -13 -4 -13 2 0 10
-18 10 -37 -2 -6 -4 -14 -3 -18 2 -5 10 -42 7 -53 -4 -3 -2 -11 0 -19 6 -10 9
-17 8 -28 -1 -8 -7 -15 -8 -15 -3 0 5 -9 9 -20 9 -11 0 -20 -4 -20 -9 0 -4 -6
-5 -12 0 -19 11 -37 12 -44 2 -3 -5 -13 -5 -25 1 -14 8 -19 7 -19 -2 0 -10 -2
-10 -8 -1 -5 8 -13 9 -22 3 -9 -5 -19 -5 -26 1 -8 7 -14 6 -19 -1 -4 -7 -13
-7 -27 1 -16 8 -19 8 -13 -1 6 -9 3 -9 -12 -2 -12 7 -25 7 -36 1 -11 -7 -17
-6 -17 1 0 7 -6 8 -19 1 -10 -6 -21 -8 -24 -5 -9 10 -57 12 -63 3 -3 -5 -14
-4 -25 1 -13 8 -19 7 -19 0 0 -7 -7 -7 -21 1 -17 8 -20 8 -14 -1 5 -8 3 -11
-6 -8 -8 3 -20 -2 -27 -11 -11 -13 -12 -13 -6 -1 5 12 4 13 -6 3 -10 -9 -18
-9 -33 -1 -16 8 -19 8 -14 -5 4 -12 0 -14 -19 -11 -13 2 -24 0 -24 -6 0 -6 -9
-6 -25 0 -15 6 -26 6 -30 0 -4 -6 -3 -10 2 -10 4 0 1 -4 -7 -10 -8 -5 -17 -6
-20 -1 -3 4 -14 -2 -24 -13 -16 -16 -17 -18 -3 -13 9 3 17 2 17 -4 0 -6 -15
-9 -34 -8 -19 2 -42 -3 -52 -11 -16 -13 -17 -13 -9 0 8 13 7 13 -8 1 -9 -7
-17 -10 -17 -6 0 4 -6 2 -14 -4 -10 -8 -16 -9 -21 -1 -3 6 -12 7 -18 3 -20
-12 -37 -12 -37 0 0 8 -3 7 -9 -2 -6 -9 -11 -10 -15 -2 -5 8 -13 8 -27 1 -10
-6 -19 -7 -19 -3 0 4 -16 8 -35 8 -19 0 -35 -2 -35 -5 0 -3 -23 -5 -50 -5 -28
0 -50 3 -50 8 0 4 -4 5 -10 2 -18 -11 -50 -14 -50 -5 0 6 -10 6 -25 0 -16 -6
-26 -6 -31 1 -4 6 -11 5 -21 -3 -19 -15 -23 -15 -34 4 -5 8 -9 8 -9 2 0 -7
-13 -10 -31 -8 -16 2 -28 0 -24 -5 3 -5 -5 -7 -17 -3 -15 4 -19 2 -13 -7 6
-10 3 -11 -12 -3 -12 7 -25 7 -36 1 -9 -6 -23 -7 -29 -3 -7 5 -21 9 -30 9 -15
1 -16 -1 -6 -14 7 -9 9 -13 4 -9 -4 4 -19 3 -33 -3 -16 -6 -22 -6 -18 1 4 7
-2 7 -19 0 -17 -6 -26 -6 -30 3 -2 7 -5 5 -5 -4 -1 -15 -15 -17 -53 -10 -4 0
-5 10 -3 21 2 11 0 18 -4 15 -5 -3 -12 2 -15 11 -3 8 -2 12 4 9 5 -3 9 9 9 27
0 18 0 41 1 51 0 33 -3 47 -13 47 -5 0 -7 7 -3 15 3 8 -2 18 -11 23 -11 7 -12
11 -4 17 9 5 9 10 1 20 -7 9 -8 15 -1 19 7 5 7 15 1 31 -7 18 -6 24 2 22 6 -1
14 9 18 23 4 14 13 24 21 22 11 -3 11 -1 2 8 -8 9 -7 17 5 31 8 10 20 15 25
12 6 -4 8 0 5 8 -5 16 27 51 37 41 4 -4 6 -2 5 3 -5 23 1 35 18 35 14 0 15 2
2 10 -13 8 -12 10 3 10 10 0 20 7 23 15 3 8 14 17 25 20 11 4 17 11 14 16 -6
8 9 13 29 10 5 -1 6 6 2 15 -4 11 -2 15 8 11 8 -3 17 1 20 9 3 9 11 12 18 8 7
-4 10 -4 6 0 -10 11 24 46 45 46 10 0 16 3 14 8 -3 4 5 16 16 27 11 11 16 13
12 5 -5 -8 3 -4 17 10 37 36 78 69 78 63 0 -3 24 19 53 49 28 30 64 62 79 72
15 10 25 23 21 29 -3 5 -2 7 4 4 9 -6 45 18 85 56 10 9 21 18 26 19 4 2 6 6 5
10 -2 5 1 8 6 8 5 0 26 16 45 35 20 19 42 35 49 35 9 0 9 2 0 8 -9 6 -6 11 8
21 12 7 18 8 15 2 -4 -5 -2 -13 4 -16 6 -4 10 -3 9 2 -3 20 2 34 11 28 6 -3
10 1 10 9 0 9 6 15 13 13 6 -1 11 4 10 11 -2 6 2 12 7 12 6 0 85 74 175 165
91 91 168 166 172 168 5 1 7 5 6 9 -2 4 5 4 14 1 12 -5 15 -2 10 10 -4 11 1
18 16 23 12 5 25 7 29 6 5 -1 7 1 6 6 -3 9 58 72 70 72 6 0 24 14 41 32 17 17
31 29 31 25 0 -4 10 3 22 15 13 13 22 27 20 31 -1 5 2 6 7 3 5 -3 17 -3 26 0
13 5 14 8 3 15 -10 7 -11 9 0 9 8 0 10 5 6 13 -6 9 -4 9 6 0 11 -10 18 -9 37
9 13 12 23 26 23 32 0 6 -12 -2 -26 -19 l-26 -30 21 32 c15 22 28 31 41 28 18
-3 19 -1 9 18 -7 12 -8 19 -4 15 5 -4 15 -2 23 5 13 10 14 9 7 -2 -5 -9 -4
-12 3 -7 6 4 9 13 5 22 -3 8 -1 14 3 12 5 -2 26 14 46 35 20 20 41 37 47 37 6
0 11 4 11 9 0 18 60 72 71 65 7 -4 9 -3 6 3 -8 13 61 85 73 78 4 -3 7 3 6 13
0 9 5 16 12 14 8 -1 11 2 8 7 -3 5 5 16 19 25 14 9 24 22 22 29 -1 6 3 11 10
10 6 -1 25 13 42 33 17 19 35 33 40 30 5 -3 8 2 7 12 0 9 5 16 12 14 6 -1 11
1 10 5 -4 13 82 94 92 88 6 -3 7 0 4 8 -3 8 3 20 12 28 16 12 17 12 9 -1 -5
-9 -5 -12 1 -7 5 5 9 14 9 20 1 7 6 11 13 9 7 -1 11 4 10 10 -2 7 3 12 10 10
6 -1 11 4 10 10 -2 7 3 12 10 10 6 -1 11 1 10 6 -2 4 8 19 21 32 13 14 20 18
16 10 -4 -8 1 -6 12 5 11 11 18 23 16 28 -2 4 -1 7 4 6 20 -3 34 2 28 11 -3 6
-2 10 3 10 14 0 62 48 62 62 0 9 3 9 10 -2 8 -12 10 -10 10 10 0 18 3 21 9 12
6 -10 10 -8 14 8 3 13 10 19 17 15 6 -4 9 -1 8 7 -2 7 4 13 13 12 9 -1 16 5
16 12 0 7 -5 10 -10 7 -6 -4 -7 -1 -3 6 5 7 15 10 23 7 8 -3 12 -2 9 3 -3 4 6
18 19 29 14 12 25 27 25 33 0 5 4 8 9 5 5 -3 12 1 15 10 4 10 12 14 22 10 14
-5 15 -4 4 9 -11 13 -10 14 4 9 13 -5 15 -2 9 12 -6 17 -5 17 10 6 14 -12 16
-11 12 7 -2 12 0 19 6 16 5 -4 9 2 9 12 0 15 2 16 10 3 8 -13 10 -13 10 2 0 9
6 21 13 25 6 4 23 21 37 38 20 23 21 26 5 16 -11 -7 -7 -2 8 13 16 14 33 23
39 20 7 -5 8 -2 3 5 -7 13 52 78 68 73 4 -1 6 4 5 10 -2 7 3 12 10 10 6 -1 11
1 10 6 -2 4 7 18 19 31 12 13 20 29 16 34 -3 6 -2 8 3 5 5 -3 15 0 22 8 7 8
10 14 7 14 -3 0 0 6 7 14 7 8 16 12 20 9 4 -2 5 4 1 13 -4 11 -2 15 4 11 6 -4
13 3 16 14 4 13 10 18 18 13 7 -4 10 -3 6 3 -3 5 10 27 30 49 20 21 32 33 28
25 -6 -10 -4 -12 4 -7 7 5 10 10 7 13 -8 9 14 44 24 38 4 -3 7 6 6 20 -2 13 0
22 4 20 4 -2 16 3 26 11 10 9 12 12 4 8 -12 -7 -13 -5 -3 8 7 8 9 19 5 23 -4
5 -1 5 6 1 11 -6 17 5 13 27 0 4 3 7 9 7 5 0 6 7 3 17 -5 12 -3 14 7 8 10 -6
12 -4 7 8 -4 10 -1 17 6 17 7 0 8 3 2 8 -13 9 -13 35 -1 44 6 4 5 12 -2 21 -7
7 -9 16 -6 20 10 10 12 57 2 63 -5 3 -1 15 9 27 10 11 13 17 6 14 -6 -4 -14
-3 -17 2 -3 5 1 12 10 15 9 3 14 12 11 19 -3 7 2 29 11 48 8 18 14 45 13 58
-2 14 1 21 8 17 6 -4 8 2 6 14 -2 11 1 20 7 20 5 0 8 6 5 14 -3 8 1 17 10 20
11 5 13 10 4 20 -6 7 -8 16 -5 19 4 3 4 13 0 22 -4 12 -10 14 -26 5 -15 -8
-18 -8 -15 2 3 8 -3 13 -19 13 -13 0 -22 -3 -19 -7 2 -5 -3 -8 -11 -8 -9 0
-16 -5 -16 -11 0 -5 5 -7 12 -3 7 4 8 3 4 -4 -4 -6 -13 -9 -20 -6 -8 3 -17 1
-21 -5 -3 -6 -11 -11 -17 -11 -5 0 0 8 13 18 27 23 20 57 -11 49 -11 -3 -18 0
-17 6 1 6 -9 12 -23 12 -14 0 -31 4 -38 9 -7 4 -19 5 -27 2 -8 -3 -17 -1 -20
4 -3 5 -22 8 -41 5 -20 -2 -34 0 -34 7 0 7 -5 6 -15 -2 -12 -10 -18 -10 -29
-1 -8 7 -17 8 -20 3 -6 -9 -48 -8 -63 1 -5 3 -15 2 -23 -3 -7 -4 -24 -4 -37 1
-15 5 -22 5 -18 0 3 -6 -4 -9 -15 -8 -11 1 -20 5 -20 10 0 5 -7 4 -15 -3 -12
-10 -18 -10 -29 -1 -8 7 -17 8 -20 3 -6 -9 -48 -8 -63 1 -5 3 -15 2 -23 -3 -7
-4 -24 -4 -37 1 -15 5 -22 5 -18 0 3 -6 -4 -9 -15 -8 -11 1 -20 5 -20 10 0 5
-7 4 -15 -3 -8 -6 -20 -8 -27 -4 -17 11 -48 13 -42 3 2 -4 -5 -7 -16 -6 -11 1
-20 5 -20 10 0 5 -7 4 -15 -3 -11 -9 -19 -10 -28 -1 -10 8 -17 7 -27 -2 -10
-10 -11 -9 -5 1 6 11 3 12 -12 3 -14 -7 -23 -7 -31 1 -9 9 -12 9 -12 1 0 -11
-17 -12 -35 -1 -5 3 -19 2 -30 -2 -11 -4 -29 -2 -40 6 -11 6 -31 11 -45 10
-14 -1 -28 3 -32 9 -5 6 -8 4 -8 -6 0 -11 -9 -15 -35 -14 -19 0 -35 -4 -35
-10 0 -5 -5 -3 -10 5 -5 8 -10 10 -10 4 0 -6 -7 -11 -15 -11 -8 0 -15 4 -15 8
0 5 -10 5 -22 0 -13 -5 -33 -5 -46 0 -14 5 -21 5 -17 -1 3 -5 -4 -8 -15 -7
-11 1 -20 5 -20 10 0 5 -6 5 -13 -2 -10 -8 -17 -7 -27 2 -9 9 -11 9 -6 0 4 -8
-1 -11 -14 -10 -11 1 -20 5 -20 10 0 5 -7 4 -15 -3 -11 -9 -18 -10 -28 -1 -8
6 -17 8 -20 4 -12 -11 -57 -12 -57 -1 0 6 -6 6 -15 -2 -12 -10 -18 -10 -29 -1
-8 7 -17 8 -20 3 -5 -9 -23 -8 -71 1 -11 3 -24 2 -30 -2 -18 -10 -35 -10 -35
1 0 6 -6 5 -15 -2 -11 -9 -18 -10 -28 -1 -8 6 -17 8 -20 4 -12 -11 -57 -12
-57 -1 0 6 -6 6 -15 -2 -12 -10 -18 -10 -29 -1 -8 7 -17 8 -20 3 -3 -5 -18 -8
-33 -5 -63 9 -84 9 -89 1 -3 -5 -13 -3 -22 4 -12 10 -14 10 -8 1 7 -13 -4 -17
-31 -14 -7 1 -13 -3 -13 -10 0 -8 -4 -9 -13 0 -10 8 -17 7 -25 -1 -9 -9 -12
-9 -12 1 0 10 -3 11 -13 2 -10 -8 -17 -7 -25 1 -9 9 -12 9 -12 0 0 -14 -21
-12 -32 3 -5 6 -8 5 -8 -3 0 -9 -5 -10 -19 -2 -12 6 -22 6 -25 1 -7 -10 -31
-9 -42 2 -4 3 -15 2 -25 -4 -14 -7 -19 -6 -19 2 0 9 -3 9 -14 0 -10 -9 -16 -9
-21 -1 -5 8 -11 8 -21 -1 -8 -6 -14 -7 -14 -2 0 5 -7 10 -15 10 -8 0 -15 -5
-15 -10 0 -5 -6 -5 -13 2 -10 8 -17 7 -25 -1 -9 -9 -12 -9 -12 0 0 10 -5 10
-20 2 -15 -8 -20 -8 -20 1 0 8 -4 9 -13 0 -10 -8 -17 -7 -25 1 -9 9 -12 9 -12
1 0 -7 -9 -10 -22 -7 -38 8 -78 11 -78 4 0 -3 -9 -6 -20 -6 -11 0 -20 4 -20 9
0 5 -7 4 -15 -3 -11 -9 -15 -9 -15 -1 0 7 -4 10 -9 7 -4 -3 -26 11 -47 31 -21
19 -33 32 -25 28 9 -5 7 1 -4 19 -10 15 -20 24 -23 21 -3 -2 -11 3 -19 13 -8
9 -12 11 -8 5 4 -8 1 -11 -9 -7 -8 3 -12 13 -9 22 4 14 3 14 -5 3 -13 -19 -67
-24 -84 -8 -24 22 -107 10 -93 -14 4 -5 3 -9 -2 -9 -4 0 -8 -18 -9 -40 0 -25
3 -37 10 -33 6 4 6 0 -1 -8 -7 -8 -10 -29 -8 -47 2 -18 1 -30 -4 -28 -4 3 -8
-1 -8 -9 0 -8 3 -12 6 -10 9 5 6 -58 -3 -73 -4 -7 -2 -12 5 -12 10 0 10 -3 2
-11 -8 -8 -8 -20 -2 -36 6 -16 5 -22 -1 -18 -6 3 -10 1 -10 -4 0 -6 5 -11 12
-11 9 0 9 -3 0 -12 -15 -15 -16 -32 -2 -23 6 3 10 1 10 -4 0 -6 -6 -11 -12
-11 -10 0 -9 -3 1 -9 8 -5 10 -14 5 -22 -12 -20 -14 -59 -3 -59 6 0 7 5 3 12
-4 7 -3 8 5 4 6 -4 8 -13 4 -19 -11 -18 -11 -71 0 -79 14 -9 18 -58 5 -58 -6
0 -5 -7 3 -17 8 -9 9 -14 3 -10 -14 8 -13 -35 1 -45 6 -5 5 -8 -2 -8 -7 0 -13
-5 -13 -11 0 -5 4 -7 10 -4 6 3 7 -1 4 -9 -4 -10 -1 -16 7 -16 11 0 11 -2 0
-9 -18 -12 -23 -41 -9 -58 7 -9 7 -13 -1 -13 -6 0 -11 -5 -11 -11 0 -5 6 -7
13 -3 8 5 8 2 -2 -9 -7 -9 -9 -17 -4 -17 5 0 10 -7 10 -15 0 -11 -3 -12 -14
-3 -11 9 -12 7 -4 -15 8 -19 6 -28 -5 -38 -12 -10 -12 -14 -2 -20 10 -6 8 -9
-6 -9 -12 0 -16 -5 -12 -16 3 -8 2 -12 -4 -9 -6 3 -10 0 -10 -8 0 -7 -11 -24
-25 -37 -14 -13 -24 -31 -23 -39 2 -9 -3 -15 -10 -13 -8 1 -11 -2 -7 -8 4 -6
1 -18 -7 -27 -7 -10 -8 -14 -1 -10 8 5 8 1 0 -17 -7 -13 -15 -22 -19 -20 -5 3
-8 -3 -8 -13 0 -11 -5 -24 -12 -31 -7 -7 -8 -12 -3 -12 6 0 5 -4 -2 -8 -6 -4
-13 -14 -15 -22 -2 -8 -11 -21 -21 -28 -9 -7 -14 -18 -11 -24 4 -6 0 -16 -8
-22 -8 -6 -15 -13 -16 -16 -2 -16 -22 -60 -27 -60 -4 0 -3 5 1 12 5 7 3 8 -5
4 -7 -5 -10 -11 -7 -14 3 -3 -2 -14 -11 -24 -16 -18 -16 -19 3 -12 18 6 18 6
-1 -9 -11 -8 -23 -13 -27 -11 -8 5 -5 -17 5 -33 6 -9 3 -11 -9 -6 -15 5 -14 3
2 -23 17 -26 17 -28 1 -15 -15 12 -17 12 -11 -4 5 -13 4 -16 -4 -11 -16 10
-15 -7 1 -23 10 -10 8 -11 -7 -5 -13 5 -17 4 -12 -4 4 -7 1 -12 -9 -12 -9 0
-13 -5 -10 -10 3 -6 -4 -14 -17 -19 -13 -4 -22 -11 -20 -15 4 -11 -25 -36 -33
-28 -4 4 -5 0 -3 -8 2 -8 -3 -14 -9 -13 -7 2 -12 -1 -10 -5 3 -11 -70 -82 -84
-82 -5 0 -7 -4 -4 -10 6 -9 -8 -15 -29 -11 -5 1 -6 -5 -3 -13 4 -10 0 -14 -14
-11 -11 2 -17 0 -14 -6 4 -5 -2 -9 -12 -9 -15 0 -16 -2 -3 -10 13 -9 13 -10 0
-10 -9 0 -22 -9 -30 -20 -8 -11 -21 -20 -30 -20 -13 0 -13 -1 0 -10 13 -8 12
-10 -5 -11 -11 -1 -24 -1 -28 0 -5 1 -6 -2 -4 -6 2 -5 -5 -17 -16 -28 -11 -11
-16 -13 -12 -5 5 8 -13 -6 -39 -33 -26 -26 -53 -44 -59 -40 -7 4 -8 0 -3 -12
6 -16 4 -16 -11 -4 -10 7 -15 9 -11 5 10 -12 -81 -98 -95 -89 -6 4 -8 0 -4
-11 4 -9 3 -15 -2 -11 -6 3 -21 -6 -35 -20 -14 -14 -26 -22 -26 -18 -1 4 -7
-3 -15 -17 -8 -14 -14 -19 -15 -12 0 7 -16 -4 -37 -25 -20 -21 -30 -29 -22
-19 13 18 13 18 -8 6 -12 -8 -20 -17 -17 -21 4 -8 -26 -23 -39 -20 -5 1 -7 -2
-4 -6 5 -10 -29 -43 -37 -35 -3 3 -6 -2 -6 -11 0 -9 -3 -16 -7 -16 -21 3 -34
-2 -28 -11 4 -6 3 -10 -2 -9 -21 4 -33 -2 -33 -17 0 -8 -4 -12 -10 -9 -5 3
-10 1 -10 -5 0 -7 -7 -10 -14 -7 -11 4 -13 1 -9 -10 4 -10 2 -14 -5 -9 -6 3
-15 -2 -21 -11 -6 -10 -11 -14 -11 -10 0 4 -6 2 -14 -5 -8 -7 -12 -16 -9 -20
2 -4 -2 -5 -10 -2 -9 3 -22 -4 -31 -18 -9 -12 -16 -18 -16 -13 0 5 -6 1 -13
-10 -8 -10 -19 -15 -26 -11 -7 5 -10 2 -9 -6 2 -7 -4 -12 -12 -10 -8 2 -12 1
-8 -3 10 -11 -29 -48 -41 -40 -7 3 -10 3 -9 -2 2 -4 0 -9 -5 -10 -4 -2 -15
-11 -25 -20 -32 -32 -85 -68 -94 -65 -5 1 -7 -2 -3 -7 8 -13 -32 -34 -48 -25
-8 5 -7 2 2 -9 12 -16 11 -18 -14 -17 -3 0 -17 -12 -30 -26 -14 -15 -25 -23
-25 -18 0 5 -5 1 -11 -8 -5 -10 -14 -18 -18 -18 -5 0 -28 -18 -52 -39 -23 -22
-45 -39 -48 -38 -3 1 -16 -8 -29 -21 -12 -12 -27 -20 -32 -17 -6 4 -10 -1 -10
-9 0 -9 -3 -15 -7 -15 -19 3 -34 -2 -29 -9 3 -5 -10 -16 -29 -25 -19 -9 -35
-22 -35 -27 0 -6 -4 -9 -9 -5 -5 3 -12 -4 -16 -14 -4 -13 -11 -18 -22 -14 -12
5 -14 3 -8 -7 6 -10 4 -12 -9 -7 -14 6 -17 3 -12 -8 3 -9 2 -14 -3 -11 -4 3
-18 -4 -29 -15 -12 -11 -22 -17 -22 -14 0 3 -8 -3 -18 -12 -11 -10 -17 -21
-15 -25 2 -4 -2 -5 -10 -2 -7 2 -25 -7 -40 -21 -16 -17 -31 -24 -39 -19 -7 4
-10 4 -6 0 8 -9 -14 -36 -24 -30 -4 3 -12 -5 -18 -16 -6 -11 -15 -20 -21 -20
-6 0 -17 -7 -26 -15 -8 -8 -19 -12 -25 -9 -7 4 -8 2 -4 -4 4 -7 -3 -14 -19
-18 -13 -3 -22 -10 -19 -15 5 -8 -9 -13 -28 -10 -5 0 -8 -6 -8 -16 0 -9 -3
-13 -7 -10 -3 4 -15 0 -25 -10 -10 -9 -18 -13 -18 -9 0 4 -6 1 -14 -6 -8 -7
-12 -16 -9 -21 2 -4 1 -7 -4 -6 -22 4 -43 -2 -38 -11 3 -5 -3 -10 -13 -10 -13
0 -19 -6 -18 -17 0 -10 -6 -18 -14 -19 -8 0 -23 -2 -33 -2 -10 -1 -16 -6 -13
-10 2 -4 -4 -14 -16 -21 -16 -10 -19 -10 -12 1 4 7 -5 1 -20 -14 -16 -15 -32
-26 -36 -23 -4 3 -11 -2 -14 -11 -3 -9 -11 -12 -18 -8 -7 5 -9 2 -5 -9 4 -11
1 -15 -13 -12 -10 2 -21 -3 -24 -11 -3 -9 -10 -12 -16 -9 -5 3 -10 1 -10 -4 0
-6 -9 -11 -20 -11 -11 0 -23 -7 -26 -15 -4 -8 -12 -15 -19 -15 -7 0 -16 -7
-19 -16 -5 -14 -9 -14 -23 -3 -12 10 -15 10 -9 1 5 -8 -2 -14 -23 -18 -17 -4
-31 -10 -31 -15 0 -5 -9 -4 -20 3 -14 9 -16 14 -7 20 9 6 9 8 0 8 -11 0 -11
22 1 78 3 12 0 22 -5 22 -6 0 -7 5 -3 12 11 18 12 68 2 68 -5 0 -6 4 -3 10 12
20 14 50 2 50 -8 0 -8 3 1 9 8 4 13 11 13 15 -3 23 0 36 9 31 7 -4 7 2 0 19
-6 17 -6 27 1 32 7 4 7 10 0 18 -7 9 -7 17 2 26 10 10 9 11 -2 5 -10 -6 -12
-4 -5 6 12 20 14 39 3 39 -5 0 -5 10 0 23 4 12 6 28 3 36 -3 8 0 11 6 7 6 -4
10 2 9 14 -1 11 -6 20 -11 20 -5 0 -1 7 10 15 13 10 14 14 5 15 -10 0 -11 3
-3 13 7 8 7 18 2 27 -5 8 -5 21 1 31 6 12 5 19 -4 22 -9 3 -9 7 1 19 9 11 10
18 2 23 -7 4 -7 12 1 26 7 15 7 24 -2 35 -6 8 -7 14 -2 14 5 0 9 9 9 20 0 11
-4 20 -9 20 -5 0 -5 6 2 13 8 10 7 17 -1 25 -9 9 -9 12 0 12 14 0 12 21 -2 32
-6 4 -5 12 3 21 8 10 9 17 1 22 -7 4 -7 12 0 26 8 14 7 19 -1 19 -9 0 -9 3 0
14 8 10 9 16 1 21 -7 4 -7 12 1 26 7 15 7 24 -2 35 -8 10 -8 14 0 14 8 0 9 5
2 18 -6 11 -6 24 -1 32 5 9 5 19 -2 27 -7 9 -7 13 1 13 13 0 11 22 -3 32 -6 4
-5 12 3 21 8 10 9 17 1 22 -7 4 -7 12 1 26 7 15 7 24 -2 35 -6 8 -7 14 -2 14
5 0 9 9 9 20 0 11 -4 20 -9 20 -5 0 -5 6 2 13 8 10 7 17 -1 25 -9 9 -9 12 0
12 14 0 12 21 -2 32 -6 4 -5 12 3 21 8 10 9 17 1 22 -7 4 -7 12 1 26 7 15 7
24 -2 35 -8 10 -8 14 0 14 8 0 9 5 1 19 -7 13 -7 22 0 26 7 4 7 13 0 26 -7 13
-7 19 0 19 12 0 9 22 -4 32 -6 4 -5 12 3 21 8 10 9 17 1 22 -7 4 -7 12 1 26 7
15 7 24 -2 35 -7 8 -7 14 -1 14 12 0 10 33 -3 42 -6 5 -5 8 3 8 9 0 10 5 2 19
-7 14 -7 22 0 26 8 5 7 11 -1 21 -9 11 -9 14 1 14 10 0 10 3 0 15 -7 9 -8 15
-2 15 12 0 10 33 -3 42 -6 5 -5 8 3 8 9 0 10 5 2 19 -7 14 -7 22 0 26 8 5 7
11 -1 21 -9 11 -9 17 0 28 8 10 9 16 1 21 -7 4 -7 12 1 26 7 15 7 24 -2 35 -8
10 -8 14 0 14 8 0 9 5 2 18 -6 11 -6 24 -1 32 5 9 5 19 -2 27 -7 9 -7 13 1 13
13 0 11 22 -3 32 -6 4 -5 12 2 20 9 11 9 17 0 26 -9 9 -9 12 1 12 11 0 11 3 1
15 -7 8 -9 15 -4 15 4 0 3 5 -3 11 -6 6 -9 18 -6 25 3 8 0 14 -7 14 -6 0 -8 5
-3 12 10 17 10 49 1 70 -5 10 -3 18 5 21 9 3 9 7 0 19 -10 11 -10 17 0 28 10
10 9 11 -2 5 -10 -6 -12 -4 -5 6 12 20 14 39 3 39 -6 0 -8 4 -4 9 10 17 13 71
3 77 -5 3 -3 13 4 22 11 13 11 14 -1 7 -11 -6 -12 -5 -5 6 12 20 14 39 3 39
-5 0 -5 10 -1 23 8 24 7 79 -2 103 -3 8 -2 14 2 14 9 0 7 54 -3 69 -3 6 -2 11
3 11 13 0 10 33 -3 42 -7 5 -6 8 0 8 12 0 13 46 2 57 -4 3 -2 12 4 20 9 10 8
13 -2 13 -9 0 -10 3 -4 8 14 10 17 32 4 32 -5 0 -7 4 -4 10 11 17 11 90 0 94
-7 3 -7 5 0 5 10 1 11 71 1 98 -3 7 0 13 7 13 8 0 6 4 -3 10 -8 5 -12 10 -8
10 11 0 -35 45 -47 45 -5 1 -9 7 -7 14 1 7 -2 9 -8 6 -6 -4 -19 3 -30 15 -12
14 -21 17 -25 10 -4 -7 -13 -4 -25 10 -11 13 -21 17 -25 10 -4 -6 -12 -5 -22
6 -9 9 -26 14 -40 11 -12 -2 -23 0 -23 5 0 4 -10 2 -23 -7 -13 -8 -27 -12 -30
-8 -4 3 -7 0 -7 -7 0 -7 -3 -11 -6 -7 -4 3 -13 0 -20 -8 -8 -8 -22 -11 -31 -8
-12 5 -14 3 -8 -7 6 -9 4 -11 -4 -6 -9 6 -8 13 6 29 10 12 14 19 9 15 -5 -4
-20 5 -32 20 -15 17 -24 21 -24 13 0 -11 -4 -9 -16 5 -8 10 -12 13 -8 5 5 -10
3 -12 -6 -6 -8 5 -31 9 -53 10 -21 1 -33 -1 -27 -5 8 -5 7 -9 -4 -13 -9 -4
-16 -3 -16 1 0 4 -9 8 -20 8 -11 0 -20 -4 -20 -9 0 -4 -5 -5 -10 -2 -6 4 -24
0 -40 -9 -17 -8 -30 -10 -30 -5 0 5 -6 4 -14 -3 -8 -7 -11 -17 -8 -23 3 -5 -2
-3 -13 5 -23 19 -21 19 -40 -5 -9 -11 -14 -14 -10 -7 3 6 1 12 -4 12 -6 0 -11
-4 -11 -8 0 -8 -9 -10 -60 -15 -14 -1 -30 -9 -37 -17 -9 -11 -12 -12 -13 -2 0
10 -5 10 -21 1 -16 -8 -20 -8 -14 1 5 9 1 8 -16 -1 -13 -7 -42 -14 -64 -14
-22 -1 -49 -6 -60 -12 -11 -6 -26 -8 -34 -5 -9 3 -11 0 -6 -9 6 -11 5 -11 -5
-2 -9 8 -19 9 -32 2 -10 -5 -24 -7 -30 -3 -7 5 -8 3 -3 -6 6 -10 4 -12 -8 -7
-10 4 -17 1 -17 -6 0 -7 -3 -8 -8 -2 -8 11 -37 13 -47 4 -3 -4 -19 -5 -36 -3
-16 2 -28 0 -25 -5 3 -4 -8 -7 -24 -6 -17 1 -30 -2 -30 -7 0 -5 -9 -4 -20 2
-11 6 -20 7 -20 2 0 -5 -7 -9 -15 -9 -8 0 -15 5 -15 10 0 5 -7 3 -17 -4 -19
-16 -23 -16 -34 3 -7 10 -11 10 -17 1 -5 -7 -13 -9 -21 -3 -16 9 -43 2 -36
-10 6 -10 -15 -7 -34 4 -9 6 -12 5 -7 -2 8 -14 -22 -20 -56 -11 -16 4 -28 4
-28 -1 0 -6 -52 -6 -70 1 -3 1 -9 0 -15 -1 -32 -7 -56 -6 -61 2 -3 4 -10 6
-15 2 -17 -10 -79 -10 -79 0 0 6 -5 5 -11 -1 -8 -8 -20 -8 -35 -3 -15 6 -24 6
-24 0 0 -6 -9 -6 -22 -1 -13 4 -29 6 -36 4 -7 -3 -21 2 -32 12 -10 9 -21 12
-24 7 -7 -11 -24 -11 -43 1 -7 5 -13 4 -13 -2 0 -10 -19 -9 -37 2 -8 5 -13 3
-13 -4 0 -8 -4 -9 -13 0 -10 8 -17 7 -25 -1 -9 -9 -12 -9 -12 1 0 7 -4 9 -10
6 -5 -3 -10 -2 -10 2 0 5 -23 9 -51 9 -28 -1 -53 3 -56 7 -3 4 -12 2 -21 -5
-13 -11 -14 -11 -8 0 7 11 4 12 -10 4 -11 -5 -28 -6 -39 -2 -11 4 -32 4 -47
-1 -14 -4 -28 -5 -31 -3 -2 3 -14 7 -27 9 -12 2 -28 9 -36 16 -8 6 -14 8 -14
3 0 -11 -70 -11 -87 -1 -7 4 -28 9 -46 11 -19 2 -38 5 -43 8 -5 3 -18 4 -29 2
-11 -2 -30 4 -43 12 -17 11 -22 11 -22 2 0 -9 -3 -8 -10 2 -5 8 -10 11 -10 6
0 -5 -6 -3 -13 3 -8 6 -22 12 -33 14 -10 1 -25 7 -33 11 -11 7 -12 6 -6 -5 8
-12 6 -12 -8 0 -9 7 -17 10 -17 6 0 -4 -6 -3 -13 4 -10 8 -17 7 -27 -2 -7 -6
-10 -7 -8 -2 9 15 -14 30 -44 30 -17 -1 -28 4 -28 12 0 10 -5 11 -18 4 -14 -7
-22 -5 -32 10 -15 20 -36 27 -24 8 4 -7 -3 -6 -17 2 -13 7 -27 12 -31 11 -5
-1 -8 2 -8 6 0 10 -36 9 -46 -1 -4 -3 -14 -2 -24 3 -12 6 -24 4 -40 -7 -13 -9
-20 -11 -16 -5 4 7 2 12 -3 12 -6 0 -10 -11 -9 -25 1 -14 6 -25 11 -25 4 0 5
-4 2 -10 -3 -5 -1 -10 4 -10 6 0 11 -4 11 -10 0 -15 37 -49 46 -42 4 4 4 -1 1
-11 -4 -12 -2 -17 6 -15 14 3 103 -82 99 -95 -1 -5 1 -6 6 -3 10 6 43 -30 35
-38 -6 -6 13 -10 30 -7 5 1 6 -3 3 -8 -4 -5 3 -13 15 -16 17 -6 19 -9 8 -16
-10 -6 -8 -9 9 -9 14 0 21 -4 17 -11 -4 -5 2 -18 14 -28 11 -10 18 -21 14 -25
-3 -3 -1 -6 5 -6 12 0 44 -59 37 -70 -3 -4 4 -10 14 -13 15 -4 18 -11 14 -28
-5 -18 -3 -21 11 -16 14 6 15 3 6 -13 -8 -14 -8 -20 0 -20 6 0 8 -4 5 -10 -3
-5 -1 -10 5 -10 6 0 9 -4 5 -9 -3 -5 -1 -12 4 -15 5 -4 8 -18 5 -32 -3 -18 -1
-23 7 -18 9 5 10 2 6 -9 -3 -9 -1 -18 6 -21 9 -3 9 -5 0 -5 -9 -1 -10 -8 -4
-24 5 -13 6 -30 1 -37 -4 -7 -6 -19 -3 -26 8 -22 9 -78 1 -101 -4 -13 -3 -23
4 -25 8 -3 7 -11 -2 -27 -10 -19 -10 -22 2 -15 10 6 11 5 1 -7 -9 -11 -9 -19
-2 -26 7 -7 7 -13 1 -17 -7 -4 -7 -17 -2 -35 4 -15 4 -34 -1 -42 -4 -8 -4 -16
2 -20 6 -3 11 -20 11 -37 1 -17 4 -29 8 -27 4 2 7 -2 7 -10 0 -8 -5 -15 -11
-15 -6 0 -3 -5 6 -11 10 -5 18 -15 18 -22 0 -7 -4 -6 -10 3 -5 8 -10 11 -10 6
0 -5 -8 -2 -17 5 -15 12 -16 12 -10 -3 4 -12 2 -15 -8 -11 -8 3 -12 10 -9 17
3 6 -2 2 -10 -8 -12 -15 -16 -16 -16 -5 0 12 -2 12 -10 -1 -8 -12 -10 -12 -10
-1 0 11 -3 11 -15 1 -8 -7 -12 -17 -8 -24 4 -6 0 -5 -9 2 -18 14 -25 8 -24
-23 1 -13 9 -21 24 -23 12 -2 19 -8 16 -14 -4 -6 1 -8 13 -4 10 3 28 0 38 -8
14 -10 24 -11 32 -4 10 8 13 6 13 -6 0 -10 4 -15 9 -12 5 3 14 -1 21 -9 7 -8
16 -12 21 -9 5 3 9 -2 9 -11 0 -11 5 -15 16 -11 8 3 13 2 10 -3 -3 -5 1 -12
10 -15 8 -3 13 -10 9 -15 -3 -5 4 -13 16 -16 17 -6 19 -9 8 -16 -11 -7 -10 -9
5 -9 11 0 16 -5 13 -13 -3 -8 3 -20 14 -28 10 -7 19 -19 19 -26 0 -7 5 -13 10
-13 6 0 10 -7 10 -16 0 -8 4 -13 9 -10 5 4 7 -3 4 -14 -4 -15 0 -20 13 -20 16
0 17 -2 4 -10 -13 -9 -13 -10 0 -11 8 -1 19 -1 24 0 5 1 4 -5 -4 -13 -8 -11
-9 -16 -1 -16 6 0 11 -7 11 -15 0 -8 5 -15 11 -15 6 0 8 -9 4 -20 -4 -13 -2
-20 5 -18 7 2 15 -3 18 -11 3 -10 0 -11 -9 -5 -12 7 -12 5 0 -9 7 -9 18 -14
25 -10 6 4 5 0 -2 -9 -8 -10 -9 -18 -3 -22 6 -4 8 -13 4 -22 -3 -8 2 -23 11
-33 10 -11 13 -22 8 -25 -11 -7 -11 -24 1 -43 5 -7 4 -13 0 -13 -5 0 -9 -9 -9
-20 0 -11 4 -20 9 -20 5 0 4 -6 -2 -14 -8 -10 -9 -16 -1 -21 6 -3 8 -11 5 -16
-12 -18 -14 -49 -4 -55 6 -4 6 -11 -2 -20 -7 -8 -7 -14 -1 -14 5 0 13 -7 16
-16 4 -10 2 -13 -7 -8 -8 5 -7 2 2 -9 8 -10 11 -20 8 -24 -4 -3 -2 -14 4 -24
5 -11 6 -19 1 -19 -4 0 -8 -9 -8 -20 0 -11 5 -20 11 -20 6 0 7 -3 0 -8 -5 -4
-10 -20 -10 -37 0 -16 5 -33 10 -37 7 -5 7 -8 0 -8 -10 0 -11 -70 -1 -97 3 -7
2 -13 -2 -13 -4 0 -7 -23 -7 -50 0 -28 3 -50 7 -50 4 0 4 -10 0 -22 -8 -25 -7
-80 2 -104 3 -8 1 -14 -4 -14 -8 0 -5 -38 5 -67 2 -7 1 -13 -3 -13 -4 0 -7
-23 -7 -50 0 -28 3 -50 7 -50 4 0 4 -10 0 -22 -8 -24 -7 -80 2 -103 2 -8 0
-16 -7 -18 -9 -3 -9 -8 1 -19 10 -12 10 -18 1 -23 -8 -6 -7 -10 2 -16 8 -5 9
-9 3 -9 -6 0 -11 -7 -11 -15 0 -8 4 -15 9 -15 5 0 7 -4 3 -9 -10 -17 -13 -71
-3 -77 5 -3 4 -12 -3 -20 -9 -11 -8 -14 2 -14 9 0 10 -3 4 -8 -14 -10 -17 -32
-4 -32 5 0 7 -4 4 -10 -11 -17 -11 -90 0 -90 7 0 7 -3 0 -8 -5 -4 -10 -20 -10
-37 0 -16 5 -33 10 -37 7 -5 7 -8 0 -8 -10 0 -11 -70 -1 -97 3 -7 2 -13 -2
-13 -4 0 -7 -23 -7 -50 0 -28 3 -50 7 -50 4 0 4 -10 0 -22 -8 -25 -7 -80 2
-104 3 -8 2 -14 -2 -14 -4 0 -8 -9 -8 -20 0 -11 5 -20 11 -20 6 0 7 -3 0 -8
-5 -4 -10 -20 -10 -37 0 -16 5 -33 10 -37 7 -5 6 -8 0 -8 -12 0 -13 -46 -2
-57 4 -3 2 -12 -4 -20 -9 -10 -8 -13 2 -13 9 0 10 -3 4 -8 -14 -10 -17 -32 -5
-32 5 0 6 -9 2 -22 -9 -28 -9 -49 1 -65 4 -6 2 -15 -4 -19 -8 -4 -7 -9 2 -15
11 -7 11 -9 1 -9 -10 0 -10 -5 -2 -20 6 -11 7 -20 3 -20 -4 0 -9 -11 -9 -25
-1 -14 2 -25 7 -25 5 0 5 -10 0 -23 -5 -14 -5 -30 0 -40 6 -9 6 -17 2 -17 -4
0 -8 -23 -8 -50 0 -28 3 -50 7 -50 4 0 4 -10 0 -22 -8 -25 -7 -80 2 -104 3 -8
2 -14 -2 -14 -9 0 -7 -54 3 -69 3 -6 3 -11 -2 -11 -9 0 -8 -85 2 -100 3 -5 3
-10 -2 -10 -4 0 -9 -11 -9 -25 -1 -14 2 -25 7 -25 5 0 5 -10 0 -23 -5 -14 -5
-30 0 -40 6 -9 6 -17 2 -17 -5 0 -9 -9 -9 -20 0 -11 5 -20 11 -20 6 0 7 -3 0
-8 -5 -4 -10 -20 -10 -37 0 -16 5 -33 10 -37 7 -5 7 -8 0 -8 -11 0 -11 -82 0
-99 3 -6 2 -11 -4 -11 -6 0 -6 -11 -1 -28 4 -16 4 -36 -2 -45 -5 -10 -5 -17 0
-17 5 0 8 -11 7 -25 -2 -14 1 -27 5 -30 5 -3 7 -12 3 -20 -3 -9 1 -15 8 -15 9
0 10 -3 4 -8 -13 -9 -18 -32 -6 -32 4 0 6 -11 3 -25 -2 -15 -9 -22 -16 -18 -6
4 -5 -1 3 -10 9 -12 10 -17 2 -17 -7 0 -9 -4 -6 -10 3 -5 1 -18 -4 -28 -7 -13
-7 -22 1 -30 7 -7 8 -12 2 -12 -5 0 -9 -22 -9 -50 0 -27 4 -50 9 -50 5 0 3 -6
-3 -13 -6 -8 -8 -16 -6 -19 6 -6 16 -44 18 -73 1 -11 7 -23 12 -27 6 -5 6 -8
-2 -8 -6 0 -10 -9 -8 -20 2 -11 0 -20 -5 -20 -4 0 -7 -8 -5 -17 1 -10 0 -22
-3 -28 -9 -15 -10 -45 -1 -45 5 0 5 -10 1 -22 -8 -25 -7 -80 2 -104 3 -8 2
-14 -2 -14 -4 0 -8 -9 -8 -20 0 -11 5 -20 11 -20 6 0 7 -3 0 -8 -5 -4 -10 -20
-10 -37 0 -16 5 -33 10 -37 7 -5 7 -8 0 -8 -10 0 -11 -70 -1 -97 3 -7 2 -13
-2 -13 -4 0 -7 -23 -7 -50 0 -28 3 -50 7 -50 4 0 4 -10 0 -22 -8 -25 -7 -80 2
-104 3 -8 1 -14 -4 -14 -8 0 -5 -38 5 -67 2 -6 -1 -14 -8 -17 -9 -5 -9 -7 0
-12 9 -4 10 -11 3 -25 -8 -14 -7 -19 2 -19 8 0 9 -3 3 -8 -14 -10 -17 -32 -5
-32 5 0 6 -9 2 -22 -8 -24 -7 -80 2 -103 2 -8 0 -16 -7 -18 -9 -3 -9 -8 1 -19
10 -12 10 -18 1 -23 -8 -6 -7 -10 2 -16 8 -5 9 -9 3 -9 -6 0 -11 -7 -11 -15 0
-8 4 -15 9 -15 5 0 7 -4 3 -9 -10 -17 -13 -71 -3 -77 5 -3 4 -12 -3 -20 -9
-11 -8 -14 2 -14 9 0 10 -3 4 -8 -14 -10 -17 -32 -4 -32 5 0 7 -4 4 -10 -11
-17 -11 -90 0 -90 7 0 7 -3 0 -8 -5 -4 -10 -20 -10 -37 0 -16 5 -33 10 -37 7
-5 7 -8 0 -8 -11 0 -11 -82 0 -99 3 -6 3 -11 -2 -11 -4 0 -8 -23 -8 -50 0 -28
3 -50 7 -50 4 0 4 -10 0 -22 -8 -25 -7 -80 2 -104 3 -8 2 -14 -2 -14 -4 0 -8
-9 -8 -20 0 -11 5 -20 11 -20 6 0 7 -3 0 -8 -5 -4 -10 -20 -10 -37 0 -16 5
-33 10 -37 7 -5 6 -8 0 -8 -12 0 -13 -46 -2 -57 4 -3 1 -13 -6 -21 -10 -13 -9
-14 2 -7 11 6 12 5 5 -6 -12 -20 -14 -39 -3 -39 6 0 8 -4 4 -9 -10 -17 -13
-71 -3 -77 5 -3 3 -13 -4 -22 -11 -13 -11 -14 1 -7 11 6 12 5 5 -6 -12 -20
-14 -39 -3 -39 5 0 5 -10 1 -22 -8 -25 -7 -80 2 -104 3 -8 2 -14 -2 -14 -4 0
-7 -23 -7 -50 0 -28 3 -50 7 -50 4 0 4 -10 0 -22 -8 -25 -7 -80 2 -104 3 -8 1
-14 -4 -14 -8 0 -5 -38 5 -67 2 -6 -1 -14 -8 -17 -9 -5 -9 -7 0 -12 9 -4 10
-11 3 -25 -8 -14 -7 -19 2 -19 8 0 9 -3 3 -8 -14 -10 -17 -32 -5 -32 5 0 6 -9
2 -23 -8 -24 -7 -79 2 -103 3 -8 2 -14 -2 -14 -4 0 -8 -9 -8 -20 0 -11 5 -20
11 -20 6 0 7 -3 0 -8 -5 -4 -10 -20 -10 -37 0 -16 5 -33 10 -37 7 -5 7 -8 0
-8 -10 0 -11 -70 -1 -97 3 -7 2 -13 -2 -13 -4 0 -7 -23 -7 -50 0 -28 3 -50 7
-50 4 0 4 -10 0 -22 -8 -25 -7 -80 2 -104 3 -8 2 -14 -2 -14 -4 0 -8 -9 -8
-20 0 -11 5 -20 11 -20 6 0 7 -3 0 -8 -5 -4 -10 -20 -10 -37 0 -16 5 -33 10
-37 7 -5 7 -8 0 -8 -5 0 -10 -16 -10 -35 0 -19 5 -35 10 -35 7 0 7 -3 0 -8 -5
-4 -10 -20 -10 -37 0 -16 5 -33 10 -37 7 -5 7 -8 0 -8 -10 0 -11 -70 -1 -97 3
-7 2 -13 -2 -13 -8 0 -6 -85 3 -100 3 -5 3 -10 -2 -10 -4 0 -9 -11 -9 -25 -1
-14 2 -25 7 -25 5 0 5 -10 0 -23 -5 -14 -5 -30 0 -40 7 -11 6 -17 -1 -17 -7 0
-8 -6 -1 -19 6 -10 7 -21 4 -25 -9 -8 -10 -56 -2 -56 4 0 7 -10 8 -22 2 -56 6
-78 13 -78 5 0 4 -9 -2 -20 -8 -15 -8 -20 2 -20 9 0 9 -3 -2 -10 -13 -9 -13
-10 0 -10 9 0 11 -3 5 -8 -12 -8 -13 -22 -2 -39 5 -7 4 -13 0 -13 -5 0 -9 -9
-9 -20 0 -11 5 -20 10 -20 6 0 5 -5 -2 -12 -9 -9 -8 -16 6 -32 9 -11 11 -16 4
-12 -15 9 -16 -10 -1 -19 6 -4 8 -13 5 -20 -2 -7 -2 -16 2 -19 6 -7 12 -30 14
-53 1 -7 5 -13 9 -13 4 0 11 -9 14 -20 4 -11 18 -32 31 -45 13 -14 24 -27 24
-30 -1 -22 1 -27 6 -22 10 10 36 -22 28 -34 -4 -7 -3 -9 4 -5 6 3 13 2 17 -4
3 -5 16 -10 28 -10 18 0 19 -2 7 -10 -13 -8 -12 -10 3 -10 9 0 17 -7 17 -15 0
-9 6 -12 15 -9 10 4 15 0 15 -11 0 -15 2 -15 16 -5 8 8 14 9 13 4 -4 -22 2
-33 15 -28 7 3 16 -2 19 -10 4 -9 16 -16 27 -16 11 0 20 -4 20 -10 0 -5 3 -9
8 -7 4 1 17 -8 30 -21 12 -12 27 -20 32 -17 6 4 10 1 10 -5 0 -6 5 -8 10 -5 6
4 17 1 25 -5 8 -7 15 -9 15 -4 0 5 5 2 10 -7 6 -10 18 -15 34 -12 13 3 27 -1
31 -8 6 -8 4 -10 -5 -4 -9 5 -11 4 -6 -4 6 -9 11 -9 24 1 9 8 13 8 9 2 -4 -7
0 -15 9 -18 8 -3 12 -2 9 4 -3 6 1 7 9 4 9 -3 16 -10 16 -16 0 -5 10 -6 21 -3
13 5 19 3 15 -3 -9 -15 20 -22 34 -9 10 9 11 9 6 0 -5 -9 1 -13 18 -13 14 0
26 -3 26 -8 0 -13 69 -30 74 -18 3 7 5 6 5 -1 1 -7 8 -13 16 -13 8 0 15 -5 15
-11 0 -5 4 -8 8 -5 13 8 82 -13 82 -25 0 -6 4 -7 10 -4 5 3 10 0 10 -7 0 -8 3
-9 8 -3 9 13 35 18 27 5 -3 -5 1 -10 10 -10 9 0 14 -4 11 -9 -8 -12 27 -8 36
4 5 6 8 6 8 -2 0 -6 13 -14 29 -18 16 -3 35 -13 41 -20 9 -11 17 -12 30 -5 11
6 21 6 24 1 7 -11 60 -23 103 -24 23 -1 33 -6 33 -17 0 -12 2 -12 9 -1 6 9 11
10 15 3 4 -6 13 -9 21 -5 8 3 15 0 15 -6 0 -6 5 -11 11 -11 5 0 7 6 3 13 -6 9
-5 9 7 0 8 -6 31 -14 51 -18 22 -4 35 -12 32 -17 -5 -7 -1 -7 11 0 19 10 51
-1 67 -23 5 -6 8 -6 8 1 0 6 7 11 15 11 8 0 15 -4 15 -9 0 -4 14 -8 31 -8 19
0 28 -4 23 -11 -5 -8 -1 -8 13 0 13 7 23 7 30 0 5 -5 26 -11 46 -12 21 -1 37
-5 37 -9 0 -4 13 -5 30 -3 16 2 30 0 30 -5 0 -4 7 -11 16 -14 10 -4 13 -2 8 7
-5 8 -2 7 9 -2 14 -11 17 -11 17 0 0 11 2 11 10 -1 5 -8 10 -11 10 -6 0 5 10
1 22 -10 12 -10 18 -13 14 -7 -4 7 -2 13 3 13 6 0 11 -6 11 -12 0 -10 2 -10 8
-1 5 8 13 9 22 3 8 -6 28 -10 43 -10 16 0 26 -4 23 -8 -3 -5 1 -9 9 -9 8 0 15
4 15 9 0 5 6 6 13 1 19 -12 37 -12 37 -1 0 6 9 1 20 -12 11 -13 20 -18 20 -12
0 7 10 8 30 2 21 -6 30 -5 30 3 0 7 4 6 10 -3 9 -13 10 -13 10 0 0 12 2 13 9
1 7 -11 9 -11 14 0 4 10 6 10 6 2 1 -7 10 -13 22 -13 13 0 18 -4 13 -12 -5 -7
-3 -8 7 -2 19 12 39 14 39 4 0 -10 20 -8 39 4 9 6 12 5 8 -1 -4 -6 1 -17 10
-24 12 -10 14 -10 9 -1 -4 6 -3 12 3 12 5 0 13 -5 16 -10 4 -7 12 -7 25 0 13
7 21 7 26 -1 4 -8 9 -7 15 2 5 8 9 9 9 4 0 -6 9 -11 20 -12 11 -1 18 2 15 8
-4 5 3 5 18 0 18 -7 29 -5 42 7 14 13 16 13 10 2 -4 -8 3 -4 16 9 14 15 19 26
12 28 -9 3 -9 12 -2 31 7 18 7 28 0 30 -6 2 -7 13 -3 25 8 24 7 79 -2 103 -3
8 -2 14 2 14 9 0 7 54 -3 69 -3 6 -3 11 2 11 4 0 8 23 8 50 0 28 -3 50 -7 50
-4 0 -4 10 0 23 8 24 7 79 -2 103 -3 8 -2 14 2 14 4 0 8 9 8 20 0 11 -5 20
-11 20 -6 0 -7 3 0 8 6 4 10 21 10 37 0 17 -4 33 -10 37 -7 5 -7 8 0 8 6 0 10
16 10 35 0 19 -4 35 -10 35 -7 0 -7 3 0 8 6 4 10 21 10 37 0 17 -4 33 -10 37
-7 5 -6 8 0 8 12 0 13 46 2 57 -4 3 -2 12 4 20 9 10 8 13 -2 13 -9 0 -10 3 -4
8 14 10 17 32 5 32 -5 0 -6 9 -2 23 8 24 7 79 -2 103 -3 8 -2 14 2 14 4 0 7
23 7 50 0 28 -3 50 -7 50 -4 0 -4 10 0 23 8 23 7 79 -2 102 -2 8 0 16 7 19 9
5 9 7 0 12 -9 4 -10 11 -3 25 8 14 7 19 -2 19 -8 0 -9 3 -3 8 14 10 17 32 4
32 -5 0 -7 4 -4 10 11 17 11 90 0 90 -7 0 -7 3 0 8 13 9 13 72 0 72 -7 0 -7 3
0 8 6 4 10 21 10 37 0 17 -4 33 -10 37 -6 5 -6 8 1 8 8 0 9 11 4 35 -4 19 -4
37 1 40 4 3 4 17 -1 30 -6 16 -6 27 1 31 7 4 7 9 2 13 -6 3 -13 19 -17 34 -5
22 -4 27 6 21 7 -4 5 2 -5 13 -9 11 -14 23 -10 27 10 10 11 66 1 66 -4 0 -8 5
-8 11 0 5 3 8 8 6 4 -3 7 15 7 39 0 24 -3 44 -7 44 -4 0 -5 6 -3 13 10 29 13
67 5 67 -6 0 -6 10 0 25 6 15 6 26 -1 30 -5 4 -6 12 -2 18 10 16 11 67 1 67
-4 0 -8 5 -8 11 0 5 3 8 8 6 4 -3 7 15 7 39 0 24 -3 44 -7 44 -4 0 -3 11 2 24
5 13 6 27 3 30 -10 9 -4 88 7 101 6 8 5 16 -3 25 -8 8 -8 11 -1 7 8 -5 13 7
16 33 2 22 -1 42 -7 44 -6 3 -5 5 2 5 6 1 9 10 6 21 -3 11 1 28 8 37 10 12 10
14 1 9 -7 -4 -12 -1 -12 9 0 10 5 13 12 9 8 -5 9 -2 5 9 -3 9 -2 19 3 22 7 4
6 13 0 25 -9 17 -8 19 7 13 16 -6 16 -5 4 11 -11 13 -11 16 -2 14 8 -2 15 6
17 17 1 11 13 28 25 37 11 10 16 18 10 18 -8 0 -8 4 1 14 7 8 16 12 21 9 4 -2
7 3 7 11 0 21 90 107 103 99 5 -3 8 -2 5 3 -6 11 28 45 36 37 3 -4 6 -1 6 6 0
8 6 11 16 7 12 -4 15 -2 10 9 -3 10 1 15 12 15 10 0 24 6 30 13 7 6 18 12 25
12 7 1 11 7 9 15 -3 12 -1 12 9 3 14 -14 42 -6 32 10 -4 6 -1 7 7 2 7 -4 16
-2 21 6 7 11 9 11 9 1 0 -9 5 -10 19 -3 10 6 21 7 25 4 3 -4 17 -1 30 7 14 7
31 10 39 7 8 -3 20 0 26 6 6 6 11 7 11 2 0 -6 11 -10 25 -10 14 0 25 4 25 8 0
4 9 3 20 -3 13 -7 20 -7 20 -1 0 6 7 7 17 4 12 -5 14 -3 8 8 -7 12 -6 12 7 1
14 -11 18 -10 27 5 6 10 11 13 11 5 0 -9 5 -10 19 -3 10 6 21 8 23 5 11 -10
48 -12 53 -3 4 5 14 5 26 -1 14 -8 19 -7 19 1 0 9 3 9 14 0 10 -8 16 -9 21 -1
4 7 12 7 26 0 14 -8 19 -7 19 1 0 9 3 9 14 0 10 -8 16 -9 21 -1 4 7 12 7 25 0
13 -7 20 -6 23 3 4 9 6 9 6 -1 1 -9 6 -10 20 -2 14 7 22 7 26 0 4 -6 12 -7 18
-3 16 10 38 10 61 0 12 -6 16 -5 12 1 -7 12 25 21 59 17 14 -1 25 2 25 7 0 5
5 6 10 3 15 -10 100 -11 100 -2 0 5 5 5 11 1 15 -9 93 -9 107 0 7 4 12 2 12
-4 0 -7 6 -8 19 -1 10 6 21 7 25 4 3 -3 6 -1 6 4 0 6 8 10 18 8 9 -1 27 2 40
6 12 5 22 5 22 1 0 -10 62 -8 79 3 7 4 16 4 20 -1 9 -13 41 -14 41 -2 0 6 6 6
14 -1 11 -9 16 -9 21 0 6 8 10 7 16 -2 7 -11 9 -11 9 -1 0 7 5 10 10 7 6 -3
10 -1 10 6 0 8 5 7 17 -2 9 -8 14 -9 10 -3 -9 16 18 25 32 11 8 -8 11 -7 11 4
0 11 2 12 9 0 6 -10 13 -10 28 -2 11 5 23 8 26 4 10 -10 67 -12 67 -2 0 5 11
4 25 -1 16 -6 25 -6 25 0 0 5 7 6 17 3 10 -4 14 -2 10 4 -3 5 0 10 8 10 8 0
12 -4 9 -9 -3 -4 2 -5 10 -2 9 3 16 11 16 16 0 7 5 6 13 -1 8 -6 17 -8 21 -4
9 9 46 11 46 3 0 -4 7 -7 15 -7 8 0 15 4 15 9 0 5 9 4 20 -2 15 -8 20 -8 20 1
0 8 3 9 14 0 10 -8 19 -6 38 8 19 15 28 17 36 9 9 -9 12 -9 12 0 0 9 5 10 19
2 14 -7 21 -6 24 3 4 9 6 9 6 -1 1 -8 6 -10 14 -5 6 4 18 9 25 10 31 7 39 10
68 26 17 9 34 13 38 10 3 -4 6 0 6 7 0 7 3 11 6 7 7 -7 73 24 115 54 14 10 29
16 33 12 3 -3 6 -1 6 5 0 6 20 23 45 38 25 14 45 30 45 36 0 5 4 7 9 4 5 -3
12 1 15 10 3 8 10 13 15 10 5 -3 11 1 15 9 3 8 12 15 21 15 8 0 15 4 15 10 0
13 49 60 63 60 8 0 8 3 -1 9 -10 6 -9 10 7 14 12 3 21 13 21 22 0 9 5 13 10
10 6 -3 10 -1 10 5 0 6 5 8 12 4 6 -4 8 -3 5 3 -4 6 1 17 10 24 14 12 16 12 8
-1 -5 -9 -5 -12 1 -7 5 5 9 12 9 16 0 14 33 40 40 33 5 -4 5 -2 2 4 -8 13 16
37 26 27 4 -3 7 0 7 7 0 15 51 66 63 62 5 -1 5 3 1 9 -4 7 1 18 11 26 11 7 16
13 12 13 -4 0 5 13 19 30 15 16 30 27 35 24 4 -2 6 4 4 16 -2 11 1 23 7 26 7
5 8 2 3 -6 -6 -9 -4 -11 4 -6 7 5 10 14 7 22 -3 7 3 19 13 26 22 16 53 63 46
70 -3 2 13 19 36 37 22 19 38 39 35 46 -2 7 2 16 10 19 8 3 14 12 14 21 0 8 5
15 11 15 5 0 8 4 5 8 -3 5 3 14 14 22 10 7 16 20 12 28 -3 10 -1 13 6 8 7 -4
12 -2 12 3 0 6 5 11 12 11 9 0 9 -3 1 -11 -7 -7 -8 -21 -3 -40 5 -16 5 -31 0
-34 -5 -3 -5 -16 0 -30 6 -16 6 -25 0 -25 -12 0 -9 -22 5 -32 6 -5 5 -8 -2 -8
-9 0 -10 -7 -3 -24 5 -13 6 -27 3 -30 -9 -9 -10 -56 -1 -56 4 0 4 -10 -1 -22
-4 -12 -5 -37 -1 -55 5 -18 5 -31 1 -28 -4 2 -8 -9 -8 -25 0 -17 4 -30 8 -30
5 0 5 -10 0 -22 -4 -12 -5 -37 -1 -55 5 -18 5 -31 1 -28 -4 2 -8 -9 -8 -25 0
-17 4 -30 9 -30 5 0 4 -9 -2 -19 -7 -14 -7 -22 0 -26 6 -4 8 -11 4 -16 -10
-16 -10 -79 0 -79 4 0 3 -7 -5 -16 -7 -9 -9 -18 -3 -22 11 -9 15 -42 4 -42 -6
0 -6 -52 1 -70 1 -3 0 -9 -1 -15 -6 -29 -4 -75 4 -75 4 0 3 -7 -5 -16 -7 -9
-9 -18 -3 -22 8 -6 10 -27 4 -42 -6 -16 -5 -62 2 -66 5 -3 6 -10 2 -15 -10
-17 -10 -79 0 -79 6 0 5 -5 -1 -11 -7 -7 -8 -21 -3 -40 5 -16 5 -29 0 -29 -6
0 -6 -52 1 -70 1 -3 0 -9 -1 -15 -6 -31 -4 -75 4 -75 6 0 5 -5 -1 -11 -7 -7
-8 -21 -3 -40 5 -16 5 -29 0 -29 -6 0 -6 -52 1 -70 1 -3 0 -9 -1 -15 -6 -31
-4 -75 4 -75 6 0 5 -5 -1 -11 -7 -7 -8 -21 -3 -40 5 -17 5 -31 -1 -34 -5 -4
-9 -15 -9 -26 0 -11 -4 -17 -10 -14 -5 3 -10 1 -10 -4 0 -6 4 -11 8 -11 5 0 9
-7 9 -15 0 -8 -3 -15 -6 -15 -3 0 -6 -18 -6 -39 0 -22 3 -37 8 -34 4 2 5 -7 1
-21 -10 -40 -11 -86 -2 -86 5 0 4 -8 -1 -19 -6 -10 -7 -21 -3 -25 3 -4 0 -11
-8 -16 -8 -6 -10 -10 -4 -10 17 0 25 -28 12 -36 -7 -5 -8 -2 -3 6 5 8 4 11 -2
7 -5 -3 -10 -22 -11 -41 -1 -18 -2 -38 -4 -42 -1 -5 1 -24 5 -42 4 -22 11 -31
18 -26 8 4 9 3 5 -5 -6 -9 -11 -9 -22 0 -9 7 -14 8 -13 3 4 -24 -3 -32 -26
-29 -14 1 -25 -1 -25 -4 0 -3 -21 -5 -47 -4 -27 0 -48 2 -48 3 0 1 -10 3 -22
4 -12 1 -20 -1 -17 -5 2 -4 -5 -7 -16 -6 -11 1 -20 5 -20 10 0 5 -6 5 -13 -2
-10 -8 -17 -7 -27 2 -9 9 -11 9 -6 0 4 -8 -1 -11 -14 -10 -11 1 -20 5 -20 10
0 5 -6 5 -12 -1 -15 -12 -25 -12 -56 -1 -15 6 -21 5 -17 -1 3 -6 2 -10 -4 -10
-5 0 -13 5 -16 10 -4 6 -13 7 -23 2 -19 -9 -84 -8 -100 2 -6 3 -12 1 -14 -5
-2 -7 -12 -7 -30 0 -15 6 -29 7 -32 3 -4 -7 -51 -8 -66 -2 -3 1 -9 1 -15 0
-25 -6 -52 -6 -71 1 -11 4 -27 4 -34 -1 -7 -5 -24 -4 -37 1 -12 5 -23 5 -23 1
0 -9 -82 -8 -97 1 -6 4 -19 0 -27 -9 -12 -11 -16 -12 -16 -2 0 10 -3 9 -10 -2
-5 -8 -12 -11 -16 -8 -4 4 -14 3 -23 -2 -10 -5 -23 -5 -31 0 -10 6 -23 4 -36
-5 -12 -8 -25 -11 -28 -8 -15 15 -34 11 -29 -5 5 -13 3 -14 -6 -6 -8 7 -25 9
-46 4 -23 -5 -36 -4 -39 4 -2 6 -5 0 -5 -14 -1 -18 -4 -21 -10 -11 -7 10 -11
9 -23 -8 -8 -11 -18 -19 -21 -16 -4 3 -5 2 -2 -2 3 -3 -2 -15 -12 -25 -9 -10
-11 -18 -5 -18 6 0 9 -7 6 -15 -4 -8 -11 -12 -17 -8 -6 4 -8 0 -4 -9 3 -9 0
-21 -6 -27 -8 -8 -8 -11 1 -11 9 0 10 -5 4 -18 -5 -9 -7 -23 -4 -31 3 -8 0
-11 -7 -7 -7 5 -9 1 -4 -10 4 -12 3 -15 -5 -10 -9 5 -9 1 -2 -18 7 -19 6 -26
-3 -26 -7 0 -8 -3 -2 -8 12 -8 13 -61 2 -79 -4 -6 -3 -15 3 -18 7 -5 8 -11 1
-19 -6 -7 -6 -17 -1 -26 5 -9 5 -19 -2 -27 -6 -7 -6 -13 -1 -13 13 0 11 -43
-2 -52 -7 -5 -7 -8 0 -8 11 0 11 -61 1 -79 -4 -5 -2 -13 4 -16 8 -5 7 -11 -1
-22 -8 -9 -9 -17 -3 -21 11 -8 12 -27 2 -37 -4 -4 -3 -18 2 -31 7 -17 6 -24
-3 -24 -7 0 -8 -3 -2 -8 6 -4 10 -23 10 -42 0 -19 -4 -38 -10 -42 -7 -5 -7 -8
0 -8 6 0 11 -11 11 -25 1 -14 -2 -22 -8 -19 -6 4 -5 -2 1 -14 8 -15 8 -23 0
-28 -9 -5 -6 -11 6 -21 11 -7 13 -13 6 -13 -7 0 -10 -4 -6 -9 3 -5 1 -13 -5
-16 -8 -5 -8 -11 0 -20 8 -9 8 -15 0 -20 -6 -4 -7 -12 0 -24 6 -12 5 -22 -2
-29 -8 -8 -8 -12 -2 -12 13 0 12 -43 -1 -52 -7 -5 -7 -8 0 -8 11 0 11 -61 1
-79 -4 -5 -2 -13 4 -16 8 -5 7 -11 -1 -22 -10 -11 -10 -16 0 -22 16 -10 16
-22 -1 -32 -10 -7 -10 -9 0 -9 9 0 10 -5 3 -18 -6 -11 -6 -24 -1 -32 5 -9 5
-19 -2 -27 -7 -9 -6 -14 6 -19 9 -3 16 -10 16 -16 0 -5 -4 -6 -10 -3 -5 3 -10
2 -10 -4 0 -5 4 -12 8 -15 4 -2 9 -21 10 -42 2 -20 5 -41 8 -46 3 -4 -1 -8 -8
-8 -8 0 -9 -3 -3 -8 13 -8 13 -22 1 -41 -6 -10 -5 -12 2 -7 11 7 17 -11 13
-42 -1 -6 3 -12 9 -12 7 0 7 -6 -1 -21 -8 -16 -8 -20 1 -14 8 5 11 0 8 -16 -2
-15 -9 -24 -20 -23 -18 2 -20 -16 -4 -28 6 -4 4 -13 -4 -23 -11 -14 -11 -16 1
-13 8 2 13 -3 11 -10 -2 -13 10 -16 22 -4 11 10 30 9 38 -3 5 -6 11 -6 19 2 7
7 21 8 40 3 20 -6 29 -5 29 3 0 8 3 7 9 -2 6 -9 11 -10 15 -2 4 6 13 8 19 4
17 -10 140 -10 155 1 7 5 12 4 12 -2 0 -12 18 -11 39 2 11 7 12 6 6 -5 -7 -11
-6 -12 7 -2 8 7 18 10 22 6 11 -11 50 -9 58 2 5 7 8 7 8 0 0 -6 17 -10 38 -9
20 1 43 -3 51 -9 12 -9 13 -9 7 0 -5 9 -2 11 8 7 9 -3 16 -11 16 -16 0 -6 6
-6 14 1 9 8 16 8 20 2 5 -7 15 -7 31 -1 14 5 25 6 25 2 0 -4 9 -8 20 -8 11 0
20 4 20 9 0 5 6 5 13 -2 10 -8 17 -7 25 1 8 8 12 8 12 1 0 -11 53 -8 72 3 7 5
8 2 3 -6 -6 -10 -4 -12 8 -7 10 4 17 1 17 -6 0 -9 3 -8 9 1 6 11 10 10 15 -4
5 -12 10 -14 17 -7 7 7 22 8 39 3 15 -4 33 -4 41 1 8 4 16 4 20 -3 4 -7 14 -6
29 2 17 9 21 9 15 0 -6 -9 -3 -9 13 -1 15 8 21 8 24 -1 3 -8 9 -8 24 0 12 6
26 7 34 2 8 -5 21 -5 31 0 9 5 19 7 22 3 10 -9 67 -12 67 -3 0 5 13 5 29 0 19
-5 33 -4 40 3 6 6 11 7 11 1 0 -10 62 -10 79 0 5 4 12 2 16 -4 4 -7 12 -7 25
0 13 7 20 6 22 -2 3 -8 10 -8 27 2 18 9 22 9 16 0 -6 -9 -3 -9 13 -1 15 8 21
8 24 -1 3 -8 9 -8 23 -1 13 7 27 8 44 1 17 -6 27 -6 29 1 2 5 14 6 32 1 18 -5
32 -4 39 3 6 6 11 7 11 1 0 -5 18 -9 40 -9 22 -1 40 2 40 6 0 4 13 4 29 -1 19
-5 33 -4 40 3 8 8 11 8 11 -1 0 -9 5 -10 19 -2 14 7 20 7 23 -2 3 -8 9 -8 25
0 11 6 23 9 26 5 10 -9 67 -12 67 -3 0 5 13 5 29 0 19 -5 33 -4 40 3 8 8 11 8
11 0 0 -7 14 -8 40 -3 22 4 40 4 40 0 0 -11 73 11 82 25 5 6 8 5 8 -3 0 -10 5
-10 20 -2 11 6 20 7 20 2 0 -5 7 -9 15 -9 8 0 15 5 15 10 0 5 7 4 15 -3 12
-10 15 -10 15 1 0 10 2 11 8 2 5 -8 13 -9 22 -3 8 5 21 5 32 -1 12 -6 25 -6
37 1 14 7 22 7 26 0 5 -8 11 -7 21 1 11 9 14 9 14 0 0 -8 5 -9 18 -2 11 6 24
6 32 1 9 -6 17 -5 22 3 5 8 11 8 16 2 10 -14 32 -17 32 -4 0 8 4 8 13 0 10 -8
17 -7 25 1 9 9 12 9 12 0 0 -9 5 -10 19 -3 10 6 21 8 23 5 11 -10 48 -12 53
-3 4 5 13 5 25 -1 13 -7 20 -6 23 3 4 9 6 9 6 -1 1 -9 6 -10 20 -2 14 7 22 7
26 0 5 -8 11 -8 19 -1 9 8 19 5 34 -10 12 -11 22 -16 22 -10 0 5 14 6 34 1 22
-5 39 -3 45 3 8 8 11 7 11 -1 0 -9 5 -10 19 -2 14 7 20 7 23 -2 3 -8 9 -8 25
1 12 6 24 7 27 2 6 -9 48 -7 68 5 7 4 10 4 6 -1 -4 -4 -3 -14 3 -22 9 -10 15
-10 25 -2 10 8 14 8 14 0 0 -7 8 -8 25 -1 14 5 27 5 30 1 6 -10 24 -9 41 2 6
3 14 4 18 0 10 -10 66 -9 66 2 0 6 5 3 10 -5 6 -9 10 -11 10 -3 0 7 7 10 17 6
11 -4 14 -3 9 5 -4 7 -2 12 5 12 7 0 9 10 7 25 -3 14 -2 25 2 25 6 0 6 53 -1
70 -1 3 0 10 1 15 7 32 6 56 -2 61 -4 3 -6 10 -2 15 10 17 12 59 2 65 -4 3 -6
10 -2 15 10 17 12 59 2 65 -4 3 -6 10 -2 15 11 19 11 59 0 59 -6 0 -5 4 3 9 9
6 10 11 2 15 -6 4 -8 13 -4 19 10 16 11 47 2 47 -4 0 -4 13 1 28 4 16 4 36 -1
45 -5 8 -10 27 -11 41 -1 14 -6 26 -11 26 -5 0 -4 6 2 14 8 10 9 16 1 21 -6 3
-7 11 -4 17 11 17 10 52 -1 60 -6 5 -5 8 3 8 9 0 10 5 3 19 -6 10 -7 21 -4 25
14 14 22 118 10 134 -6 8 -6 12 2 12 8 0 6 8 -4 23 -8 13 -12 27 -8 30 3 4 8
19 10 34 6 49 9 62 16 69 3 4 2 15 -3 25 -7 11 -6 19 1 21 7 2 7 12 1 29 -7
17 -6 31 1 44 7 13 7 20 -1 23 -7 2 -7 13 -2 33 6 20 5 29 -3 29 -8 0 -8 3 0
11 7 7 8 21 3 39 -5 18 -4 30 1 32 7 2 7 12 1 29 -7 17 -6 31 1 44 7 13 7 20
-1 23 -7 2 -7 13 -2 33 6 20 5 29 -3 29 -8 0 -8 3 0 11 7 7 8 21 3 40 -5 16
-5 29 -1 29 4 0 7 18 6 40 0 22 -4 40 -10 40 -5 0 -4 5 2 11 7 7 8 21 3 39 -5
18 -4 30 1 32 7 2 7 12 1 29 -7 17 -6 31 1 44 7 13 7 20 -1 23 -7 2 -7 13 -2
33 5 18 5 29 -1 29 -6 0 -7 6 -3 12 11 17 12 48 3 48 -4 0 -4 14 1 30 6 21 5
30 -3 30 -8 0 -8 3 0 11 7 7 8 21 3 40 -5 16 -5 29 0 29 12 0 8 53 -5 62 -6 5
-6 8 2 8 6 0 9 8 6 19 -3 10 0 22 6 25 5 4 8 13 5 21 -3 7 -1 23 6 34 7 14 7
21 1 21 -7 0 -7 9 -1 25 6 17 6 25 -1 25 -6 0 -7 6 -2 12 12 20 14 50 3 43 -5
-3 -8 0 -5 7 10 30 13 78 4 78 -4 0 -6 6 -4 13 10 29 13 67 5 67 -6 0 -6 10 0
25 6 15 6 26 -1 30 -5 4 -6 12 -2 18 11 18 10 67 -2 67 -5 0 -3 5 5 10 12 8
12 10 1 10 -11 0 -11 3 -1 15 10 12 10 19 2 27 -8 8 -8 17 -1 31 8 14 8 18 0
13 -8 -5 -8 0 -1 18 6 16 6 27 -1 31 -5 4 -6 12 -2 18 11 18 10 67 -2 67 -5 0
-3 5 5 10 12 8 12 10 1 10 -11 0 -11 3 -1 15 10 12 10 19 2 27 -8 8 -8 17 -1
31 8 14 8 18 0 13 -8 -5 -8 0 -1 18 6 16 6 27 -1 31 -5 4 -6 12 -2 18 10 16
11 67 1 67 -4 0 -8 5 -8 11 0 5 3 8 8 6 4 -3 7 15 7 39 0 24 -3 44 -7 44 -4 0
-5 6 -3 13 10 29 13 67 5 67 -5 0 -7 6 -5 13 10 29 13 67 5 67 -5 0 -7 6 -5
13 10 29 13 67 5 67 -5 0 -7 6 -5 13 10 29 13 67 5 67 -5 0 -7 6 -5 13 10 29
13 67 5 67 -6 0 -6 10 0 24 5 13 6 26 4 29 -11 10 -11 42 -2 61 7 13 7 16 -1
12 -6 -4 -11 -2 -11 4 0 6 -5 8 -12 4 -7 -5 -8 -3 -3 5 11 19 12 81 1 81 -6 0
-5 5 1 11 6 6 8 23 3 45 -4 18 -4 32 0 29 12 -8 7 48 -5 57 -6 5 -5 8 2 8 9 0
10 7 4 22 -6 16 -3 31 8 48 13 20 14 23 1 15 -12 -7 -13 -6 -4 6 17 22 26 51
13 43 -8 -4 -7 0 0 15 8 14 8 21 1 21 -5 0 -10 5 -10 11 0 5 4 8 8 5 10 -6 9
45 -1 61 -4 7 -3 14 3 18 15 9 12 27 -2 20 -7 -4 -6 -1 2 7 8 7 16 20 18 28 2
8 8 17 13 18 5 2 6 9 2 14 -4 7 1 9 15 6 12 -4 23 0 26 8 3 7 14 11 27 9 13
-3 28 0 36 6 8 7 13 8 13 2 0 -10 58 -8 68 2 3 2 13 0 23 -6 12 -6 19 -6 19 0
0 5 12 8 26 5 14 -3 23 -1 20 4 -3 5 11 8 30 7 18 -1 34 2 34 6 0 5 6 6 13 4
30 -11 67 -13 67 -4 0 6 5 7 11 4 15 -10 69 -12 69 -3 0 4 6 5 14 2 24 -9 79
-10 104 -2 13 4 22 3 22 -2 0 -12 22 -9 32 5 5 6 8 5 8 -4 0 -10 3 -11 13 -2
8 6 17 8 21 4 11 -11 50 -9 58 2 5 7 8 7 8 0 0 -11 73 -11 90 0 6 3 10 2 10
-3 0 -6 11 -9 25 -8 14 0 25 3 25 6 0 3 17 5 38 5 20 0 43 4 50 9 6 4 12 5 12
1 0 -4 6 -2 14 4 9 8 16 8 20 2 5 -7 15 -7 31 -1 16 6 25 6 25 0 0 -6 5 -10
11 -10 5 0 7 5 3 12 -4 7 -3 8 5 4 17 -11 61 -15 61 -6 0 4 14 6 30 4 17 -2
30 1 30 7 0 7 6 6 17 -2 14 -12 16 -12 8 0 -6 11 -3 13 12 9 11 -3 27 -1 36 3
10 6 18 5 22 -1 5 -8 11 -8 20 0 8 7 16 7 19 2 3 -6 20 -7 41 -2 24 5 35 4 35
-4 0 -6 5 -3 11 7 6 9 15 14 21 11 6 -4 14 0 19 7 7 11 11 11 17 2 5 -8 13 -9
22 -3 8 5 21 5 32 -1 13 -7 18 -6 18 2 0 8 4 8 15 -1 8 -7 15 -8 15 -3 0 5 12
10 26 11 15 1 33 7 40 13 11 9 14 8 14 -1 0 -8 6 -9 18 -5 9 4 26 9 37 10 37
5 50 10 57 20 5 6 8 6 8 -2 0 -12 30 -10 50 2 6 3 10 1 10 -5 0 -6 5 -8 10 -5
6 4 8 10 5 15 -3 5 4 7 16 5 12 -2 30 0 40 6 13 6 19 6 19 0 0 -6 7 -8 15 -5
8 4 12 11 8 18 -4 6 1 5 10 -3 13 -10 17 -10 17 -1 0 7 7 10 15 7 8 -4 17 -2
20 3 3 5 12 7 19 4 8 -3 17 -1 20 4 3 6 16 8 28 4 13 -3 19 -1 15 5 -3 5 0 10
8 10 8 0 15 -4 15 -8 0 -4 16 -1 35 7 19 8 35 11 35 8 0 -4 7 -1 15 6 11 9 15
9 15 1 0 -7 5 -9 10 -6 6 4 7 11 4 17 -4 6 -2 8 4 4 6 -3 22 -2 35 3 18 7 27
7 31 -2 3 -9 5 -9 5 0 1 7 8 10 18 6 11 -4 14 -3 9 5 -5 8 0 12 13 12 11 0 22
4 25 9 3 5 16 7 28 3 13 -3 19 -1 15 5 -4 6 5 9 23 7 16 -2 32 2 36 8 5 7 3 8
-6 3 -9 -5 -11 -4 -6 4 6 9 11 9 21 1 9 -8 15 -8 20 0 3 6 11 8 16 5 5 -4 9
-1 9 4 0 6 9 11 20 11 11 0 20 4 20 9 0 6 9 8 20 6 11 -2 18 0 15 5 -3 5 10
12 30 16 21 4 32 10 28 17 -4 6 0 8 10 4 9 -3 18 -1 21 6 3 9 5 9 5 0 1 -8 8
-6 21 7 11 11 26 17 35 14 8 -4 17 1 21 10 3 9 10 14 14 11 4 -3 18 4 31 14
13 10 32 17 41 16 9 -2 24 6 34 16 9 10 23 19 31 19 7 0 13 5 13 11 0 5 5 7
10 4 6 -3 10 -2 10 4 0 5 9 8 19 6 14 -3 18 1 14 11 -3 8 -2 14 3 13 21 -4 35
2 29 11 -3 6 1 10 9 10 9 0 25 9 36 20 11 11 25 20 30 20 6 0 10 5 10 10 0 6
7 10 15 10 8 0 15 8 15 18 0 14 2 15 10 2 8 -13 10 -12 10 3 0 10 5 15 10 12
6 -3 10 -1 10 5 0 6 4 9 9 5 5 -3 13 4 16 16 4 11 9 18 12 15 3 -3 13 3 22 12
11 12 13 13 7 2 -5 -8 4 -1 20 15 15 17 32 29 37 27 4 -1 6 1 3 6 -6 9 29 42
44 42 6 0 10 4 10 9 0 6 12 23 27 38 14 15 23 22 18 14 -5 -9 -4 -12 3 -7 6 4
8 14 5 23 -4 11 -3 14 5 9 7 -4 12 -2 12 5 0 6 8 18 18 26 11 10 12 12 2 8 -8
-4 -6 1 4 9 11 9 23 16 28 16 4 0 7 3 7 8 -4 21 3 31 16 26 11 -5 13 -2 8 12
-4 11 -3 15 4 11 6 -4 17 1 24 10 12 14 12 16 -1 9 -8 -5 -5 2 8 15 45 47 61
72 55 82 -3 5 -1 7 5 3 6 -3 13 3 17 14 3 11 11 20 16 20 6 0 7 5 4 10 -3 6
-1 10 5 10 6 0 8 5 4 12 -5 8 -2 9 11 4 15 -5 16 -4 5 9 -11 13 -9 15 11 15
19 0 21 2 9 10 -12 7 -10 11 10 19 14 5 19 10 12 10 -10 1 -10 5 0 24 7 12 11
25 10 29 -1 4 7 5 17 3 14 -3 18 1 14 16 -4 13 0 19 11 19 10 0 13 6 10 15 -4
8 -1 15 6 15 6 0 8 5 5 10 -3 6 -2 10 2 10 5 0 14 9 21 21 11 17 11 20 0 14
-7 -3 -5 0 6 9 10 8 15 20 10 27 -4 8 -3 10 4 5 7 -4 12 -1 12 8 0 9 4 16 10
16 5 0 7 7 4 15 -4 8 -2 15 4 15 5 0 13 7 16 16 4 10 2 13 -7 8 -8 -6 -8 -3 1
9 8 9 10 22 6 28 -4 7 -3 9 3 6 15 -10 26 23 13 38 -8 10 -8 15 1 21 8 4 9 3
5 -4 -4 -7 -2 -12 3 -12 6 0 11 3 12 8 3 28 9 46 19 52 10 6 10 8 0 12 -7 2
-4 14 12 33 12 16 16 26 8 21 -11 -5 -11 -4 1 6 9 7 14 18 12 25 -2 6 0 14 6
17 6 4 8 13 4 21 -3 8 0 15 6 15 6 0 11 5 11 11 0 5 -5 7 -11 3 -6 -3 -4 5 5
18 9 14 13 28 9 31 -3 4 -1 7 6 7 9 0 9 5 0 21 -6 12 -7 19 -1 15 5 -3 13 2
17 11 3 10 1 19 -5 21 -7 3 -4 10 7 19 10 8 11 11 3 7 -10 -5 -8 1 5 16 12 14
14 20 5 15 -8 -4 -4 4 10 20 14 16 18 24 10 20 -13 -8 -13 -7 0 11 8 10 20 22
25 26 6 5 5 8 -4 8 -11 0 -11 3 0 17 12 14 12 16 -1 9 -12 -6 -12 -5 1 6 21
18 30 46 16 52 -9 3 -9 5 0 5 7 1 10 8 6 18 -4 10 -2 14 5 9 6 -3 13 -2 17 4
3 5 1 10 -5 10 -8 0 -8 6 0 20 8 15 8 20 -1 20 -8 0 -8 4 -2 13 6 6 9 22 8 34
-1 12 2 20 6 17 4 -2 7 4 7 13 0 10 3 27 7 37 6 14 5 17 -4 11 -11 -6 -11 -3
-1 16 10 17 10 24 2 27 -8 2 -9 9 -2 22 7 13 7 21 0 25 -6 3 -7 14 -2 23 9 21
9 43 -1 59 -5 9 -3 11 6 7 8 -3 18 0 23 7 4 7 3 14 -3 16 -8 3 -8 14 -3 34 5
17 5 29 -1 29 -5 0 -9 5 -9 11 0 5 3 8 8 6 4 -3 7 15 7 39 0 24 -3 44 -8 44
-4 0 -3 8 2 18 7 13 6 23 -1 30 -9 9 -9 12 0 12 8 0 9 7 2 25 -7 17 -6 25 1
25 8 0 7 5 -1 15 -7 9 -8 15 -2 15 11 0 11 18 -1 37 -4 6 -3 15 3 18 8 5 7 11
-1 21 -8 10 -8 14 0 14 13 0 10 22 -4 32 -6 5 -5 8 3 8 9 0 10 6 5 18 -9 17
-8 50 1 90 3 12 1 22 -3 22 -6 0 -7 40 -1 48 7 7 5 29 -3 40 -6 7 -6 12 0 12
5 0 9 9 9 20 0 11 -4 20 -8 20 -4 0 -8 5 -8 11 0 5 3 8 8 6 4 -3 7 15 7 39 0
24 -3 44 -7 44 -4 0 -3 11 2 24 5 15 5 27 -3 35 -7 7 -7 11 -1 11 6 0 11 7 11
15 0 8 -5 15 -10 15 -5 0 -5 6 2 13 8 10 7 17 -1 25 -7 7 -8 12 -2 12 6 0 11
7 11 15 0 8 -5 15 -10 15 -5 0 -5 6 2 13 8 10 7 17 -1 25 -9 9 -9 12 0 12 14
0 12 21 -3 32 -6 5 -5 8 3 8 9 0 10 6 5 18 -9 17 -8 50 1 90 3 12 1 22 -3 22
-6 0 -7 40 -1 48 7 7 5 29 -3 40 -6 7 -6 12 0 12 5 0 9 9 9 20 0 11 -4 20 -8
20 -4 0 -8 5 -8 11 0 5 3 8 8 6 4 -3 7 15 7 39 0 24 -3 44 -7 44 -4 0 -3 11 2
24 5 15 5 27 -3 35 -7 7 -7 11 -1 11 6 0 11 7 11 15 0 8 -5 15 -10 15 -5 0 -5
6 2 13 8 10 7 17 -1 25 -9 9 -9 12 0 12 14 0 12 21 -2 32 -6 4 -6 12 0 20 12
15 12 28 1 46 -5 6 -4 12 0 12 5 0 9 9 9 20 0 11 -4 20 -8 20 -4 0 -8 5 -8 11
0 5 4 8 8 5 4 -2 8 4 8 15 0 10 -4 19 -9 19 -5 0 -5 6 1 13 6 6 10 17 10 22 0
6 -4 16 -10 23 -6 6 -6 12 -1 12 5 0 9 9 9 20 0 11 -4 20 -8 20 -4 0 -8 5 -8
11 0 5 4 8 8 5 4 -2 8 4 8 15 0 10 -4 19 -9 19 -5 0 -5 6 1 13 17 20 17 23 3
40 -7 10 -9 17 -4 17 5 0 9 9 9 20 0 11 -4 20 -8 20 -4 0 -8 5 -8 11 0 5 4 8
8 5 10 -6 9 25 -2 42 -4 6 -3 12 3 12 10 0 9 19 -2 38 -5 6 -4 12 0 12 5 0 9
9 9 20 0 11 -4 20 -8 20 -4 0 -8 5 -8 11 0 5 3 8 8 6 4 -3 7 15 7 39 0 24 -2
44 -5 44 -3 0 -5 11 -5 25 0 14 3 25 7 25 8 0 5 21 -5 38 -5 6 -4 12 0 12 5 0
9 9 9 20 0 11 -5 20 -11 20 -5 0 -3 5 5 10 11 7 11 10 2 10 -8 0 -10 5 -5 13
10 16 11 67 1 67 -4 0 -4 10 1 23 6 15 5 29 -5 41 -7 11 -11 23 -8 27 3 5 -1
9 -8 9 -8 0 -9 3 -3 8 14 10 17 52 5 52 -7 0 -7 6 0 19 7 14 7 22 0 26 -6 4
-8 11 -4 16 10 17 10 79 0 79 -6 0 -5 5 1 11 7 7 8 21 3 40 -5 16 -5 29 0 29
8 0 7 51 -3 66 -3 6 -2 15 2 22 7 12 5 86 -4 110 -3 7 -1 11 3 8 5 -3 9 8 9
24 0 17 -4 30 -9 30 -5 0 -4 9 2 19 7 14 7 22 0 26 -6 4 -8 11 -4 16 10 17 10
79 0 79 -6 0 -5 5 1 11 7 7 8 21 3 40 -5 16 -5 31 -1 33 8 5 7 53 -2 62 -3 4
-2 15 4 25 7 14 6 19 -2 19 -9 0 -9 3 0 14 8 10 8 16 -2 25 -8 6 -18 7 -22 3
-5 -4 -4 0 1 8 12 22 14 40 3 40 -6 0 -5 8 1 20 8 14 8 20 0 20 -7 0 -8 5 -3
13 4 6 6 21 5 32 -2 17 -1 18 8 5 10 -12 11 -11 7 7 -3 13 -1 26 5 29 6 4 5
10 -3 15 -10 6 -10 9 -2 9 7 0 10 6 7 14 -3 8 0 24 6 36 8 15 8 20 1 16 -16
-10 -13 0 5 18 10 10 11 16 3 16 -9 0 -8 4 1 15 9 11 9 15 1 15 -8 0 -9 5 -1
19 7 14 7 22 0 26 -6 4 -8 11 -5 16 4 5 -1 12 -9 15 -9 3 -13 10 -10 15 3 5
-4 9 -16 9 -12 0 -19 4 -15 9 6 11 -41 8 -52 -2 -3 -4 -12 -2 -20 5 -8 6 -13
7 -11 2 2 -5 -1 -10 -5 -11 -5 -1 -14 -9 -21 -19 -7 -9 -18 -14 -24 -10 -8 5
-10 1 -5 -10 4 -11 2 -15 -4 -11 -6 4 -14 0 -17 -8 -3 -8 -11 -14 -18 -13 -7
2 -12 -3 -10 -10 1 -8 -2 -11 -9 -6 -7 4 -18 -1 -25 -10 -18 -25 -34 -11 -30
25 3 24 1 27 -11 17 -8 -6 -13 -7 -11 -2 2 5 -1 11 -7 12 -5 2 -18 8 -27 13
-10 6 -19 5 -23 -1 -4 -6 -12 -7 -22 -1 -9 4 -31 5 -49 1 -22 -5 -35 -4 -38 4
-2 6 -5 3 -5 -6 -1 -22 -17 -32 -27 -17 -5 8 -3 9 6 4 9 -5 11 -4 6 4 -6 8
-12 9 -20 2 -7 -6 -16 -8 -19 -4 -4 3 -7 2 -7 -4 0 -5 -13 -8 -30 -5 -19 3
-30 0 -30 -8 0 -7 -8 -10 -20 -7 -10 3 -20 1 -22 -4 -4 -11 -44 -21 -76 -20
-15 1 -21 -3 -16 -11 5 -8 2 -9 -9 -5 -10 4 -17 1 -17 -6 0 -7 -3 -8 -8 -2 -9
12 -42 16 -42 4 0 -4 -9 -6 -20 -4 -11 2 -22 -1 -25 -6 -4 -5 -10 -7 -15 -4
-5 3 -11 1 -15 -4 -3 -6 -15 -7 -28 -2 -14 5 -30 5 -40 0 -11 -7 -17 -6 -17 1
0 6 -5 8 -12 3 -19 -11 -38 -12 -38 -2 0 6 -6 7 -12 2 -20 -12 -38 -12 -38 0
0 8 -3 8 -12 -1 -7 -7 -17 -8 -29 -2 -12 7 -20 6 -24 0 -5 -8 -11 -7 -21 1
-11 9 -14 9 -14 0 0 -8 -6 -9 -18 -2 -11 6 -24 6 -34 0 -11 -6 -19 -6 -23 1
-4 7 -13 7 -26 0 -13 -8 -19 -7 -19 0 0 7 -6 8 -18 1 -13 -7 -23 -6 -30 1 -7
7 -12 8 -12 2 0 -10 -46 -12 -56 -1 -4 3 -15 2 -25 -4 -14 -7 -19 -6 -19 3 0
10 -2 10 -8 1 -5 -7 -13 -9 -21 -4 -8 5 -26 5 -41 1 -15 -4 -33 -4 -41 0 -7 5
-21 4 -31 -1 -12 -7 -18 -6 -18 1 0 6 -5 8 -12 3 -19 -11 -38 -12 -38 -2 0 6
-6 7 -12 2 -20 -12 -38 -12 -38 0 0 8 -3 8 -12 -1 -7 -7 -17 -8 -29 -2 -12 7
-20 6 -24 0 -5 -8 -11 -7 -21 1 -11 9 -14 9 -14 0 0 -8 -6 -9 -18 -2 -11 6
-24 6 -34 0 -11 -6 -19 -6 -23 1 -4 7 -13 7 -26 0 -13 -8 -19 -7 -19 0 0 7 -6
8 -18 1 -13 -7 -23 -6 -30 1 -7 7 -12 8 -12 2 0 -5 -18 -9 -40 -9 -22 0 -40 4
-40 9 0 6 -5 5 -12 -2 -7 -7 -17 -8 -30 -1 -13 7 -18 6 -18 -2 0 -8 -4 -8 -15
1 -8 7 -15 9 -15 4 0 -4 -6 1 -14 11 -13 18 -13 18 -24 -1 -7 -11 -12 -13 -12
-6 0 7 -4 10 -10 7 -5 -3 -10 -2 -10 4 0 7 -8 7 -22 2 -13 -5 -33 -5 -46 0
-14 5 -21 5 -17 -1 3 -5 -4 -8 -15 -7 -11 1 -20 5 -20 10 0 5 -7 4 -15 -3 -12
-10 -18 -10 -29 -1 -8 7 -17 8 -20 3 -6 -9 -48 -8 -63 1 -5 3 -15 2 -23 -3 -7
-4 -24 -4 -37 1 -15 5 -22 5 -18 0 3 -6 -4 -9 -15 -8 -11 1 -20 5 -20 9 0 4
-10 4 -22 0 -29 -9 -49 -9 -67 2 -10 6 -12 5 -7 -2 7 -12 -5 -16 -31 -13 -7 1
-13 -3 -13 -10 0 -9 -3 -9 -14 0 -11 9 -16 9 -21 0 -6 -8 -10 -7 -16 2 -7 11
-9 11 -9 1 0 -7 -4 -11 -9 -7 -5 3 -12 1 -15 -4 -4 -5 -14 -8 -24 -6 -9 1 -22
-1 -28 -6 -7 -6 -10 1 -9 21 1 17 -2 30 -6 30 -5 0 -6 7 -3 15 3 8 -1 22 -10
31 -9 8 -13 21 -9 27 12 20 12 37 0 37 -8 0 -8 3 -2 8 14 10 16 64 2 55 -6 -4
-7 -1 -2 8 12 19 14 49 3 49 -5 0 -4 10 3 21 9 17 8 20 -2 14 -9 -6 -11 -2 -7
13 4 12 2 22 -4 22 -5 0 -6 5 -3 10 3 6 1 10 -6 10 -10 0 -10 3 -2 11 8 8 8
20 3 34 -5 13 -7 25 -5 26 2 2 -8 5 -21 5 -13 1 -22 -2 -19 -6z m-3892 -328
c-4 -4 -12 -11 -16 -17 -5 -6 -7 -3 -3 8 3 9 1 17 -4 17 -6 0 -10 5 -10 10 0
7 7 7 21 0 11 -7 17 -15 12 -18z m3137 -316 c0 -2 -8 -10 -17 -17 -16 -13 -17
-12 -4 4 13 16 21 21 21 13z m-1250 -1650 c0 -2 -8 -10 -17 -17 -16 -13 -17
-12 -4 4 13 16 21 21 21 13z m-160 -160 c0 -2 -8 -10 -17 -17 -16 -13 -17 -12
-4 4 13 16 21 21 21 13z m-889 -2053 c13 -16 12 -17 -3 -4 -10 7 -18 15 -18
17 0 8 8 3 21 -13z m-986 -103 c3 -6 -1 -7 -9 -4 -18 7 -21 14 -7 14 6 0 13
-4 16 -10z m-11 -28 c3 -5 -1 -9 -9 -9 -8 0 -12 4 -9 9 3 4 7 8 9 8 2 0 6 -4
9 -8z m-3137 -1021 c9 -12 12 -12 13 -3 0 10 4 9 16 -2 8 -9 20 -14 25 -11 5
4 9 1 9 -5 0 -6 13 -16 30 -21 18 -7 27 -15 23 -22 -4 -8 -1 -7 9 1 13 10 17
10 22 -3 3 -9 10 -14 14 -11 5 3 19 -4 30 -15 13 -11 22 -15 22 -8 0 7 8 2 19
-9 10 -12 23 -22 30 -22 6 0 11 -4 11 -10 0 -5 6 -10 14 -10 8 0 16 -7 20 -15
3 -8 9 -15 13 -14 25 4 43 -2 37 -13 -5 -7 -2 -9 9 -5 9 3 17 1 19 -4 2 -6 10
-11 18 -12 22 -4 41 -17 36 -26 -3 -4 1 -8 9 -8 8 0 12 5 9 11 -3 6 1 3 10 -8
9 -11 22 -16 31 -12 9 3 14 2 11 -3 -8 -12 13 -28 47 -36 15 -4 43 -22 62 -40
18 -18 36 -31 39 -27 3 3 6 0 6 -7 0 -7 5 -9 10 -6 6 3 10 -1 10 -10 0 -11 5
-15 14 -12 8 3 22 -3 32 -14 13 -15 19 -16 26 -7 5 9 8 8 8 -5 0 -10 5 -15 10
-12 6 3 10 2 10 -3 0 -5 18 -17 40 -28 22 -10 40 -23 40 -27 0 -5 5 -5 10 -2
6 3 10 -1 10 -10 0 -9 5 -13 10 -10 6 3 10 1 10 -4 0 -6 7 -11 16 -11 8 0 12
-4 9 -10 -3 -5 0 -7 8 -4 9 3 24 -6 36 -22 11 -15 21 -21 21 -15 0 8 5 8 15
-3 8 -8 15 -19 15 -25 0 -6 3 -10 8 -10 26 4 41 -2 36 -16 -4 -11 -2 -13 9
-10 8 4 22 -1 31 -10 9 -9 16 -13 16 -9 0 3 6 1 13 -5 8 -6 17 -8 20 -4 4 3 7
-2 7 -11 0 -12 5 -16 14 -13 8 3 17 -1 20 -9 3 -9 10 -12 16 -9 5 3 10 -1 10
-9 0 -9 3 -15 8 -14 13 4 52 -13 52 -22 0 -5 7 -7 15 -4 8 4 15 2 15 -4 0 -5
11 -13 25 -16 17 -4 23 -11 18 -19 -5 -8 -2 -8 9 1 9 7 18 9 20 3 1 -5 10 -11
18 -13 8 -2 18 -7 22 -13 4 -5 12 -11 18 -11 5 -1 15 -2 21 -3 5 0 7 -7 3 -13
-4 -7 -4 -10 1 -6 4 4 22 1 40 -7 19 -7 36 -11 39 -7 3 3 6 0 6 -6 0 -7 7 -12
15 -12 8 0 15 -4 15 -10 0 -5 7 -10 15 -10 8 0 15 -4 15 -9 0 -5 8 -8 18 -6 9
1 25 -4 35 -13 9 -8 17 -12 17 -9 0 4 18 -3 40 -14 22 -12 47 -18 56 -15 8 3
12 2 9 -4 -3 -6 1 -10 9 -10 18 0 19 -2 10 -24 -3 -8 -12 -12 -19 -10 -22 9
-115 9 -115 1 0 -4 -9 -3 -20 3 -15 8 -20 8 -20 -2 0 -9 -3 -9 -10 2 -5 8 -10
10 -10 4 0 -7 -11 -9 -25 -6 -14 2 -32 -1 -40 -8 -9 -7 -18 -10 -22 -7 -3 4
-13 1 -21 -6 -13 -9 -14 -9 -8 1 4 6 3 12 -1 12 -5 0 -15 -6 -22 -12 -11 -11
-12 -10 -6 2 8 13 6 13 -7 2 -11 -9 -18 -10 -23 -2 -3 6 -11 8 -16 5 -18 -11
-49 -14 -54 -4 -4 5 -13 5 -24 -1 -10 -5 -22 -6 -26 -2 -5 4 -5 2 -2 -5 9 -15
-13 -23 -35 -12 -9 5 -19 6 -22 1 -2 -4 -25 -7 -51 -6 -37 1 -45 -1 -41 -13 4
-9 2 -11 -7 -6 -17 11 -30 11 -44 0 -9 -6 -13 -6 -13 2 0 6 -5 11 -11 11 -5 0
-7 -6 -3 -12 5 -10 4 -10 -6 -1 -10 9 -17 10 -27 2 -7 -7 -13 -8 -13 -3 0 5
-11 9 -24 9 -13 0 -22 -3 -19 -7 2 -5 -3 -8 -11 -8 -22 0 -28 -1 -53 -11 -15
-5 -23 -5 -23 2 0 6 -6 6 -17 1 -10 -5 -28 -8 -41 -7 -17 1 -21 -2 -17 -13 4
-12 3 -13 -9 -3 -9 7 -21 9 -28 5 -17 -11 -48 -12 -54 -3 -6 11 -57 0 -66 -14
-5 -9 -8 -8 -8 3 0 10 -3 11 -8 4 -9 -14 -62 -21 -80 -11 -6 5 -12 4 -12 0 0
-10 -41 -10 -57 0 -6 4 -16 0 -23 -9 -7 -8 -19 -13 -27 -10 -7 3 -13 0 -13 -7
0 -7 -3 -8 -8 -2 -8 11 -42 16 -42 6 0 -9 -43 -7 -60 4 -9 6 -12 4 -8 -6 4 -9
-2 -14 -17 -14 -13 0 -21 3 -19 7 2 4 0 9 -6 13 -5 3 -10 -1 -10 -10 0 -9 -4
-14 -9 -10 -5 3 -13 0 -17 -6 -5 -8 -9 -8 -14 1 -5 8 -13 9 -26 3 -11 -6 -30
-7 -44 -3 -31 8 -52 2 -43 -14 4 -6 -1 -5 -10 3 -11 9 -17 10 -17 2 0 -6 -5
-11 -11 -11 -5 0 -7 6 -3 13 5 8 3 8 -9 -2 -9 -7 -26 -11 -37 -8 -11 3 -20 1
-20 -5 0 -6 -7 -7 -16 -4 -8 3 -13 2 -9 -3 8 -14 -17 -19 -42 -10 -16 6 -23 5
-24 -4 0 -8 -2 -8 -5 -1 -3 7 -23 10 -49 8 -37 -3 -46 0 -56 17 -8 17 -8 20 1
14 9 -5 10 -2 6 13 -5 15 -2 22 14 27 11 4 18 10 15 15 -3 5 1 23 10 40 8 16
13 30 10 30 -4 0 1 7 10 16 12 12 13 19 5 24 -9 6 -9 9 -1 14 6 4 9 11 6 16
-3 5 2 16 11 24 8 9 12 16 7 16 -9 0 -8 124 2 140 3 5 1 10 -6 10 -10 0 -10 3
-1 12 7 7 8 17 2 29 -7 12 -6 20 0 24 8 5 7 11 -1 21 -6 8 -8 14 -3 14 5 0 7
36 4 81 -3 44 -1 83 3 86 4 3 3 11 -4 19 -6 8 -8 14 -3 14 5 0 7 36 4 81 -3
44 -1 84 5 90 5 6 4 9 -5 9 -11 0 -11 3 -2 12 7 7 8 17 2 29 -7 12 -6 20 0 24
8 5 7 11 -1 21 -9 11 -9 14 0 14 9 0 9 5 1 20 -8 14 -8 20 0 20 7 0 7 7 -1 21
-9 17 -8 23 2 30 13 8 5 13 -14 10 -5 -1 -6 3 -3 8 4 5 2 12 -4 16 -6 4 -7 12
-3 18 4 6 8 20 9 32 4 33 8 49 18 60 13 15 68 6 83 -14z m1363 -1051 c0 -5 -5
-10 -11 -10 -5 0 -7 5 -4 10 3 6 8 10 11 10 2 0 4 -4 4 -10z m2240 -584 c0 -2
-8 -10 -17 -17 -16 -13 -17 -12 -4 4 13 16 21 21 21 13z m-1100 -870 c0 -2 -7
-7 -16 -10 -8 -3 -12 -2 -9 4 6 10 25 14 25 6z m-133 -3091 c-15 -16 -19 -13
-11 9 3 9 10 13 15 10 5 -3 3 -11 -4 -19z"/>
<path d="M6483 11105 c-7 -8 -9 -16 -4 -19 5 -3 12 1 15 10 8 22 4 25 -11 9z"/>
<path d="M6519 7938 c-7 -23 -4 -35 7 -35 9 0 11 4 4 12 -5 7 -7 15 -3 18 3 4
3 7 0 7 -4 0 -7 -1 -8 -2z"/>
<path d="M6885 4971 c-3 -5 -2 -12 3 -15 5 -3 9 1 9 9 0 17 -3 19 -12 6z"/>
</g>
</svg>
